<svg xmlns="http://www.w3.org/2000/svg" width="15" height="19" viewBox="0 0 15 19">
  <defs>
    <style>
      .cls-1, .cls-2 {
        fill-rule: evenodd;
      }

      .cls-2 {
        fill: none;
        stroke: #000;
        stroke-linecap: round;
        stroke-width: 1px;
      }
    </style>
  </defs>
  <circle id="Эллипс_3" data-name="Эллипс 3" cx="7.5" cy="7.266" r="0.969"/>
  <path id="Эллипс_2" data-name="Эллипс 2" class="cls-1" d="M14.689,9.4c-0.545,2.721-2.737,4.541-3.56,5.522C10.266,15.954,7.5,19,7.5,19h0s-2.772-3.04-3.636-4.066c-0.844-1-3.125-2.879-3.6-5.7A7.159,7.159,0,0,1,0,7.319,7.411,7.411,0,0,1,7.5,0,7.411,7.411,0,0,1,15,7.319,7.152,7.152,0,0,1,14.689,9.4ZM7.547,1.031a6.259,6.259,0,0,1,6.328,6.188,6.259,6.259,0,0,1-6.328,6.187A6.259,6.259,0,0,1,1.219,7.219,6.259,6.259,0,0,1,7.547,1.031Z"/>
  <path id="Эллипс_2_копия_2" data-name="Эллипс 2 копия 2" class="cls-2" d="M5.116,10.329A3.678,3.678,0,0,1,3.66,7.408,3.776,3.776,0,0,1,7.488,3.687a3.776,3.776,0,0,1,3.828,3.721,3.678,3.678,0,0,1-1.45,2.916"/>
</svg>
