<svg xmlns="http://www.w3.org/2000/svg" width="470" height="407" viewBox="0 0 470 407">
  <defs>
    <style>
      .cls-1 {
        fill: #fff;
        fill-rule: evenodd;
      }
    </style>
  </defs>
  <path id="Эллипс_1" data-name="Эллипс 1" class="cls-1" d="M469.357,177.653L418.75,376.542C414.387,393.688,397.631,407,381.14,407H90c-16.491,0-33.248-13.312-37.61-30.458L1.782,177.653C-1.916,163.122,4.167,151,15.474,151H126.023L222.8,4.758c2.086-3.151,5.906-4.619,10.13-4.39A17.829,17.829,0,0,1,238.508.16c4.595-.536,8.837.914,11.076,4.315L346.049,151H455.665C466.973,151,473.055,163.122,469.357,177.653ZM236.285,57.114L174.153,151H298.1ZM236,237a43,43,0,1,1-43,43A43,43,0,0,1,236,237Z"/>
</svg>
