<svg id="Layer_1" data-name="Layer 1" xmlns="http://www.w3.org/2000/svg" viewBox="0 0 201 100"><defs><style>.cls-1{fill:#e20f18;fill-rule:evenodd;}</style></defs><title>furshet</title><path class="cls-1" d="M49.75,53.45A4.73,4.73,0,0,1,46.9,52a5.66,5.66,0,0,1-1.18-3.81c0-3,.56-5.24,1.67-6.62a6,6,0,0,1,4.09-2.13L49.75,53.45ZM59.7,31.33H52.23l-.34,2.78C47.42,34.4,44,35.73,41.66,38S38,43.87,38,48.11a11.08,11.08,0,0,0,.79,4.26,9.33,9.33,0,0,0,2.32,3.32,11,11,0,0,0,3.68,2.19,16.08,16.08,0,0,0,4.05.89l-.35,2.92H56l.34-2.89a18.32,18.32,0,0,0,5.52-1.13,13.4,13.4,0,0,0,4.59-2.88,12.12,12.12,0,0,0,2.86-4.43,16.14,16.14,0,0,0,1-5.71,9.54,9.54,0,0,0-3.12-7.51,13.43,13.43,0,0,0-7.75-3l.35-2.81Zm1.07,19.93a6,6,0,0,1-4.07,2.2l1.73-14.06a5,5,0,0,1,2.86,1.4,5.44,5.44,0,0,1,1.22,3.88c0,2.93-.58,5.15-1.73,6.58Z"/><path class="cls-1" d="M70.45,68.61l-.3-5.66.67-.06a15.79,15.79,0,0,0,2.67-.45,8.27,8.27,0,0,0,1.87-.74,4.82,4.82,0,0,0,1.28-1q.18-.21.35-.44H75.68l-3.83-21.4h7.69l1.29,13.6,4.69-13.6h7.88L84.67,59.56a14.78,14.78,0,0,1-5,6.49,15.78,15.78,0,0,1-8.55,2.52l-.69,0Z"/><path class="cls-1" d="M132.59,60.86a5.5,5.5,0,0,1-3.42-1,4.42,4.42,0,0,1-1.4-1.88,9.55,9.55,0,0,1-2.26,1.89,7,7,0,0,1-3.57,1,5.2,5.2,0,0,1-4-1.56,6.57,6.57,0,0,1-1.45-4.64c0-.32,0-.66,0-1s.07-.72.12-1.08l1.93-13.74h7.44l-2,14a6.73,6.73,0,0,0-.11,1.07,1.34,1.34,0,0,0,.09.65.72.72,0,0,0,.41.08,2.23,2.23,0,0,0,1.22-.62,8.21,8.21,0,0,0,1.76-2.16l1.83-13h7.44l-2,14a6.54,6.54,0,0,0-.11,1,1.24,1.24,0,0,0,.1.66.59.59,0,0,0,.4.11,2.26,2.26,0,0,0,1.23-.61,7.59,7.59,0,0,0,1.71-2.09L140,38.82h7.44l-3,21.4h-6.55l0-1.69a8.5,8.5,0,0,1-1.77,1.36,7.11,7.11,0,0,1-3.53,1Z"/><path class="cls-1" d="M113.86,42.76a7.08,7.08,0,0,0-1.3-2.59,5.34,5.34,0,0,0-2.06-1.53,6.57,6.57,0,0,0-2.55-.49,7.67,7.67,0,0,0-4,1.21,9.92,9.92,0,0,0-2.08,1.71l.11-2.25H95.4L91.2,68.67l7.54-.79,1.18-8.49a7.44,7.44,0,0,0,4.53,1.47,7.24,7.24,0,0,0,3.81-1.1,10.68,10.68,0,0,0,3.13-3,15.45,15.45,0,0,0,2.13-4.56,20.55,20.55,0,0,0,.78-5.83,13.18,13.18,0,0,0-.44-3.62Zm-7.51,7.42a12.22,12.22,0,0,1-1,2.78A5.25,5.25,0,0,1,104,54.6a1.9,1.9,0,0,1-1.13.49,2.92,2.92,0,0,1-1.28-.29,3,3,0,0,1-1-.76l.77-5.37a14.1,14.1,0,0,1,2.42-3.4,2.8,2.8,0,0,1,1.76-.91,1,1,0,0,1,.75.41,2.62,2.62,0,0,1,.4,1.71,15.15,15.15,0,0,1-.41,3.69Z"/><path class="cls-1" d="M197.84,60.22H190.4l2-13.79a10,10,0,0,0,.11-1.29,2.09,2.09,0,0,0-.06-.63l-.14,0c-.11,0-.52.06-1.32.9a14.69,14.69,0,0,0-2.18,3.36l-1.61,11.48h-7.4l1.92-13.79a11.62,11.62,0,0,0,.11-1.33,1.57,1.57,0,0,0-.07-.62s0,0-.09,0-.52.06-1.32.9a15,15,0,0,0-2.22,3.44l-1.61,11.41H169l3-21.4h6.59L178.49,41a10.42,10.42,0,0,1,1.94-1.72,6.72,6.72,0,0,1,3.78-1.17,5.12,5.12,0,0,1,3.26,1.07,4.39,4.39,0,0,1,1.37,2,10.06,10.06,0,0,1,2.39-2,7.14,7.14,0,0,1,3.63-1,5.12,5.12,0,0,1,3.67,1.4A5.78,5.78,0,0,1,200,43.84V44a14.53,14.53,0,0,1-.12,1.66l-2,14.55Z"/><path class="cls-1" d="M166.29,39.78a9.42,9.42,0,0,0-5.93-1.64,12.28,12.28,0,0,0-5,1,11.28,11.28,0,0,0-3.85,2.75,12.45,12.45,0,0,0-2.47,4.19,15.53,15.53,0,0,0-.87,5.28c0,3.07.82,5.44,2.45,7.07s4,2.45,7.14,2.45a13.11,13.11,0,0,0,4.22-.71,13.24,13.24,0,0,0,3.78-2l.52-.39-3-4.69-.59.41a9.32,9.32,0,0,1-2.32,1.23,6.86,6.86,0,0,1-2.07.31,2.55,2.55,0,0,1-1.8-.63,2.85,2.85,0,0,1-.75-1.58,31.35,31.35,0,0,0,5.34-1,14.92,14.92,0,0,0,4.17-1.8,7.11,7.11,0,0,0,2.44-2.57,6.7,6.7,0,0,0,.76-3.13,5.53,5.53,0,0,0-2.15-4.56Zm-5.52,5.91a2.3,2.3,0,0,1-.83.9,6.68,6.68,0,0,1-1.85.81,14.62,14.62,0,0,1-2.12.43,6.82,6.82,0,0,1,1.47-3,3.25,3.25,0,0,1,2.38-1.24,1.37,1.37,0,0,1,.92.27.82.82,0,0,1,.26.69,2.77,2.77,0,0,1-.24,1.16Z"/><path class="cls-1" d="M35.5,59.92l-16.19-28a1.22,1.22,0,0,0-2,0l-16.19,28a1.22,1.22,0,0,0,1,1.74H34.5a1.22,1.22,0,0,0,1-1.74Z"/></svg>