<svg width="568" height="226" xmlns="http://www.w3.org/2000/svg"><g fill="none"><path d="M94.639 225.333c-16.798.36-31.592-.732-45.844-5.529-37.613-12.658-56.818-50.082-45.08-90.669 13.003-44.957 43.963-74.34 85.921-92.649 28.06-12.247 57.213-17.513 87.474-8.518 3.77 1.117 5.15-1.175 6.999-3.113 11.155-11.73 24.2-20.117 40.291-23.395 27.255-5.553 53.919 7.007 61.788 30.122 2.259 6.645 4.945 8.042 11.755 7.902 72.154-1.454 144.325-2.423 216.487-3.548 6.875-.107 13.693.452 20.355 2.144 22.869 5.799 35.749 26.105 32.48 50.016-4.124 30.204-21.202 49.524-49.188 59.94-22.68 8.444-46.64 11.352-70.248 15.656-77.412 14.12-154.856 28.044-232.3 41.934-35.018 6.284-70.068 12.38-105.135 18.368-5.791.994-11.747 1.018-15.755 1.339zM149 30.341c-21.694-.296-40.513 4.953-58.453 13.052-38.484 17.373-67.119 44.637-79.892 85.692-12.617 40.545 7.672 76.565 47.56 86.513 18.105 4.51 36.546 4.452 54.798 1.314 58.018-9.997 115.978-20.281 173.93-30.64 54.666-9.774 109.332-19.648 163.924-29.793 22.425-4.172 45.252-6.817 66.667-15.41 22.803-9.142 37.753-24.88 42.517-49.671 5.11-26.623-8.79-45.746-35.732-48.342-21.908-2.11-43.807 0-65.706.247-56.588.624-113.168 1.807-169.748 2.924-3.918.074-5.57-.682-6.588-4.846-5.668-23.28-24.963-36.168-48.94-34.278-19.444 1.527-34.304 10.875-46.715 24.93-2.875 3.261-5.02 4.477-9.447 2.908-9.594-3.4-19.616-4.986-28.175-4.6z" fill="#2B2A7A"/><path d="M149.001 30.342c8.56-.386 18.58 1.2 28.175 4.608 4.428 1.569 6.572.345 9.447-2.908 12.411-14.055 27.27-23.402 46.714-24.93 23.978-1.89 43.273 10.99 48.94 34.27 1.02 4.164 2.67 4.92 6.589 4.846 56.58-1.117 113.16-2.3 169.748-2.924 21.9-.238 43.799-2.358 65.706-.247 26.935 2.596 40.841 21.72 35.732 48.342-4.764 24.79-19.706 40.529-42.517 49.671-21.415 8.593-44.242 11.238-66.667 15.41-54.592 10.145-109.258 20.019-163.924 29.794-57.952 10.366-115.912 20.65-173.93 30.639-18.252 3.138-36.693 3.195-54.797-1.314-39.889-9.948-60.178-45.976-47.56-86.513 12.772-41.055 41.407-68.31 79.891-85.692 17.948-8.099 36.767-13.348 58.453-13.052zm377.652 35.617l.098.082c-2.546-4.099-6.875-5.627-13.964-5.11-13.217.954-22.82 7.566-29.284 19.83-4.493-18.227-9.085-20.823-26.836-16.108-.657.172-1.536.788-1.922.558-7.188-4.246-14.621-.41-21.9-.534-5.84-.098-10.037 3.155-11.163 9.53-.755 4.238-2.02 8.378-3.006 12.378-2.53.131-2.53-4.025-5.315-2.185l.05.05c-1.265-6.145-6.317-5.529-10.457-5.184-4.025.337-7.952 1.996-12.675 3.27 1.068-4.543 2.062-8.593 2.957-12.667.46-2.078 1.183-4.592-2.472-4.107-11.22 1.487-23.6-3.491-34.401 7.606 1.544-5.24.796-7.475-3.615-6.826-10.506 1.544-22.022-3.22-31.452 5.06l.115.099c-1.627-4.132-2.538-5.15-6.9-5.652-11.747-1.33-21.875 1.618-29.136 11.665-6.276 8.69-8.461 18.67-9.381 29.086-.501 5.644-1.035 11.27-1.7 18.392-3.13-4.008-3.45-8.403-7.944-8.51-1.026-1.544-2.365-2.563-4.296-2.57-9.306-5.266-16.855 2.242-25.25 4.616 5.281-15.484 10.095-30.015 15.237-44.423 1.618-4.518-1.971-3.565-4.124-4.494 1.964-1.593 3.91-2.932 5.562-4.559 10.506-10.276 6.785-26.967-7.262-31.156-11.557-3.442-22.565-1.454-31.847 6.53-9.775 8.403-10.021 21.489-.854 30.475-6.267 1.7-9.413 5.939-11.237 12.01-5.068 16.962-11.09 33.588-21.489 48.184-10.251 14.384-23.147 24.857-41.416 26.763-16.322 1.692-26.113-6.334-26.36-22.762-.345-23.132 8.913-42.608 25.44-58.519 5.232-5.043 11.894-7.762 21.078-7.483-9.2 6.399-16.536 12.6-19.92 22.113-3.203 9.035-3.146 17.841 3.836 25.094 6.876 7.13 15.632 7.336 24.314 4.066 12.527-4.698 21.284-13.619 23.723-26.852 1.47-7.968 2.744-16.921-4.805-23.517l.131.147c-.492-.616-.977-1.232-1.47-1.848a805.296 805.296 0 00-3.705-3.787c-3.852-5.947-10.235-7.45-16.42-8.444C117.59 48.561 63.408 85.353 54.39 132.57c-5.791 30.245 10.325 53.36 40.151 56.826 25.399 2.949 48.62-3.655 69.239-18.81 6.35-4.658 12.23-9.973 18.383-15.033 5.627 14.285 10.342 17.357 25.736 16.856 11.557-.378 21.135-5.98 30.655-11.714 2.317-1.396 4.033-3.121 7.557-1.593 16.79 7.278 36.743 2.226 48.826-11.517 3.508-3.984 5.742-8.789 9.069-13.545 1.511 11.327 3.055 14.424 7.869 17.275 12.584 7.45 33.99-5.455 37.777-18.828l-.032.042c1.322.993 3.014 1.018 4.23 2.694 4.822 6.678 11.968 8.592 19.805 8.912 12.058.501 22.753-2.735 32.964-13.208-1.865 8.617 2.365 6.489 5.774 5.98 7.212-1.101 14.416-2.251 21.645-3.18 4.64-.582 7.77-2.053 8.173-7.548.288-3.894 1.906-7.689 3.179-12.428 6.473 17.102 18.047 20.461 31.124 9.898 2.177-1.758 4.28-3.803 5.79-6.128 1.48-2.267 2.416-2.177 4.338-.649 9.693 7.689 20.06 8.765 30.319 2.111 9.405-6.095 15.311-16.075 23.813-23.27.51-.436.78-1.184 1.068-1.816 1.544-3.41 2.037-6.974-.345-10.063-2.71-3.5-4.559 2.473-7.261.986-.575-12.223-.674-12.535-4.748-15.993l.066.082c.772-2.72.024-3.902-2.9-2.95z" fill="#E57E08"/><path d="M262.03 114.103c1.938.008 3.277 1.027 4.296 2.57 7.762 11.205.361 18.927-7.155 26.771 10.383.625 15.813-2.374 19.583-10.53 2.382-5.15 3.565-10.663 4.444-16.256 2.004-12.716 2.81-25.785 10.227-36.998 7.902-11.951 15.212-14.005 27.953-7.96l-.115-.098c.83 1.684 1.823 3.195 4.082 4 .42-4.386 2.727-5.848 7.024-5.503 4.92.394 9.914.189 14.843-.197 4.92-.386 6.054 1.01 4.616 5.906-3.934 13.315-7.368 26.77-11.015 40.168-.748 2.735-2.087 6.013.895 7.713 3.565 2.012 5.561-1.528 7.385-3.754 4.206-5.134 7.36-10.941 9.027-17.406 2.473-9.561 4.806-19.164 7.073-28.783.649-2.735 1.355-4.871 4.87-4.78 6.31.164 12.626.04 19.313.04-.764 3.442-1.479 6.638-2.185 9.833-3.237 14.712-7.196 29.267-9.299 44.21-.353 2.488-.632 5.29 2.25 6.891 3.081 1.709 5.537.066 7.722-1.676 5.52-4.394 7.344-10.572 8.182-17.307-9.143.09-12.585-3.91-11.287-12.675 1.939-13.028 15.607-19.632 28.61-13.833l-.049-.049c1.668 4.682 3.327 9.372 4.986 14.038 5.701-1.88 8.157-5.816 9.176-11.056.895-4.617 1.84-9.266 3.31-13.718.723-2.193-.287-6.013 3.237-6.292 5.109-.403 13.225-2.998 14.818.04 3.573 6.819 5.47.945 7.508.182 6.202-2.309 12.445-3.754 18.342-.132 5.857 3.59 4.904 9.742 4.026 15.353-.912 5.807-2.243 11.549-3.524 17.29-.518 2.334-1.61 5.266.854 6.408 3.212 1.487 4.222-2.087 5.487-4.074 2.637-4.165 4.871-8.535 5.668-13.554 2.563-16.084 19.23-31.707 39.51-22.852l-.098-.082c.468 1.47 1.166 2.71 2.9 2.924l-.066-.082c2.637 7.73 2.932 15.714 1.511 23.74 4.781.13 5.315-4.93 9.857-5.726-1.15 5.988-4.164 9.52-8.731 11.713-2.193 1.052-3.992 2.062-5.159 4.379-4.247 8.436-11.294 13.011-20.585 14.21-10.12 1.315-16.108-4.107-19.82-13.274-5.044 9.06-10.36 16.765-20.635 18.876-9.48 1.955-13.98-2.02-13.242-11.557.682-8.748 3.557-17.004 5.52-25.464.699-3.007 2.218-7.262-2.037-8.576-3.811-1.191-4.789 2.99-6.03 5.577-4.427 9.225-5.577 19.394-8.024 29.178-3.976 15.91-3.804 15.853-20.125 17.759-4.009.476-4.822-.518-4.017-4.436 1.347-6.555 4.69-12.74 3.869-19.722.32.016.632.024.944.04l-.024-.607c-.271.246-.55.493-.83.73-4.469.173-5.306 3.418-6.448 6.934-5.298 16.215-17.751 22.77-33.712 24.602-12.493 1.429-21.611-2.457-25.127-16.717-2.834 4.855-4.937 8.445-7.023 12.05l.033-.04c-6.572 5.11-12.026 11.886-21.07 13.175-10.53 1.504-16.848-3.565-17.406-14.128-.403-7.45 1.38-14.482 3.614-21.48 2.284-7.171 4.411-14.392 6.473-21.637.657-2.3 1.06-5.1-1.733-6.152-3.187-1.2-4.806 1.437-5.676 3.86-1.117 3.073-1.758 6.334-2.374 9.554-2.341 12.247-4.362 24.601-9.759 36.003-9.898 20.905-27.854 27.887-48.9 18.72-3.022-1.306-4.353.238-6.234 1.34-12.568 7.334-25.653 13.035-40.636 12.058-9.562-.625-15.057-6.481-15.402-15.96-.074-1.989.18-3.985.386-7.862-3.179 3.508-5.134 5.75-7.187 7.894-19.238 20.133-42.312 31.346-70.57 32.463-36.167 1.421-58.345-28.052-45.934-62.01 7.517-20.56 21.087-36.02 39.782-47.043 17.332-10.21 35.946-14.662 56.186-12.675 6.801.666 12.026 4.896 18.425 6.095 1.232 1.265 2.464 2.53 3.704 3.787-.23 1.191-.065 2.062 1.47 1.849l-.13-.148c2.52 7.319 4.837 14.596 3.063 22.572-2.325 10.424-11.295 18.49-22.36 19.707-8.287.911-15.212-2.703-18.103-9.43-4.108-9.587-.814-21.045 8.41-28.397 2.67-2.128 5.776-3.721 8.7-5.57-.362-.509-.55-1.026-.904-1.199-.616-.312-1.322-.476-2.004-.608-11.122-2.218-20.725 1.52-28.627 8.83-17.8 16.462-25.99 37.474-25.497 61.394.329 16.29 11.352 25.727 26.647 24.495 10.744-.854 20.84-3.91 29.613-10.457 17.66-13.2 30.212-30.286 38.04-50.813 2.768-7.253 5.035-14.712 7.442-22.096.863-2.654 1.865-4.255 5.29-4.272 8.954-.025 17.907-.558 26.853-1.109 4.452-.27 5.191 1.117 3.737 5.274-5.356 15.32-10.4 30.746-15.566 46.131-1.577 4.699-2.94 9.455-3.253 14.433-.172 2.809.805 5.232 3.697 6.16 4.222 1.356 7.762-.591 11.303-2.579 3.113-1.75.78-3.63.27-5.388-3.959-13.858 3.5-23.165 18.63-23.14zm240.9-12.387c-.164 6.045 2.571 9.183 6.506 7.836 4.156-1.42 6.735-9.11 4.32-12.855-4.287-6.646-3.515-13.66 2.637-17.9 2.645-1.823 3.598-3.408 2.571-6.291-.64-1.8-1.24-3.721-3.565-3.877-2.908-.19-4.107 2.16-5.134 4.164-4.698 9.167-6.103 19.213-7.335 28.923zM252.46 136.29c3.918-1.996 6.185-4.929 7.845-8.305.936-1.906 1.396-4.148-.772-5.668-2.407-1.692-4.56-.575-6.161 1.298-3.204 3.762-3.508 7.943-.912 12.675zm146.05-37.342c-.148-1.7-.386-3.533-2.571-3.516-3.237.016-4.296 2.604-4.92 5.126-.46 1.84 1.092 2.365 2.636 2.324 2.58-.082 4.683-.83 4.855-3.934z" fill="#2B2A7A"/><g fill="#FEFEFE"><path d="M181.628 64.686c-6.399-1.2-11.631-5.43-18.424-6.095-20.232-1.988-38.854 2.472-56.186 12.674C88.322 82.281 74.752 97.74 67.236 118.31c-12.412 33.957 9.767 63.43 45.934 62.01 28.257-1.118 51.34-12.33 70.57-32.464 2.053-2.144 4-4.386 7.187-7.894-.197 3.878-.46 5.874-.386 7.861.345 9.48 5.84 15.337 15.402 15.96 14.982.978 28.068-4.722 40.636-12.058 1.88-1.1 3.22-2.645 6.234-1.339 21.045 9.16 39.002 2.185 48.9-18.72 5.388-11.401 7.41-23.756 9.758-36.003.616-3.22 1.257-6.481 2.374-9.553.871-2.424 2.497-5.06 5.676-3.861 2.793 1.043 2.39 3.852 1.734 6.152-2.062 7.237-4.19 14.466-6.473 21.637-2.235 6.998-4.017 14.03-3.615 21.48.56 10.564 6.876 15.624 17.407 14.129 9.052-1.282 14.506-8.058 21.07-13.176-3.788 13.373-25.186 26.277-37.778 18.827-4.814-2.85-6.358-5.947-7.87-17.274-3.326 4.756-5.569 9.56-9.068 13.545-12.083 13.75-32.028 18.794-48.826 11.516-3.524-1.528-5.24.197-7.557 1.594-9.52 5.733-19.098 11.336-30.656 11.713-15.393.51-20.108-2.57-25.735-16.855-6.153 5.06-12.026 10.374-18.384 15.032-20.618 15.155-43.84 21.76-69.238 18.81-29.818-3.45-45.934-26.564-40.151-56.834 9.027-47.224 63.2-84.016 110.827-76.303 6.193.994 12.568 2.506 16.42 8.445z"/><path d="M262.03 114.103c-15.131-.017-22.59 9.282-18.614 23.131.51 1.758 2.842 3.64-.271 5.389-3.549 1.988-7.089 3.935-11.303 2.58-2.891-.93-3.869-3.352-3.696-6.162.312-4.97 1.675-9.733 3.253-14.432 5.166-15.385 10.21-30.812 15.566-46.131 1.454-4.157.714-5.545-3.738-5.274-8.937.542-17.899 1.076-26.852 1.109-3.426.016-4.428 1.618-5.29 4.271-2.407 7.393-4.674 14.844-7.442 22.097-7.837 20.535-20.38 37.613-38.04 50.813-8.774 6.555-18.87 9.603-29.613 10.457-15.295 1.224-26.319-8.206-26.648-24.495-.484-23.928 7.705-44.932 25.498-61.393 7.902-7.311 17.496-11.04 28.626-8.83.682.139 1.389.295 2.005.607.353.18.534.69.903 1.2-2.924 1.856-6.029 3.441-8.699 5.569-9.224 7.351-12.518 18.81-8.411 28.396 2.891 6.728 9.816 10.342 18.104 9.43 11.073-1.215 20.035-9.282 22.36-19.706 1.774-7.968-.543-15.245-3.064-22.573 7.549 6.597 6.275 15.55 4.805 23.518-2.44 13.225-11.196 22.146-23.723 26.852-8.682 3.262-17.439 3.064-24.314-4.066-6.99-7.245-7.04-16.059-3.836-25.094 3.384-9.52 10.72-15.714 19.92-22.113-9.192-.28-15.846 2.44-21.079 7.483-16.518 15.911-25.776 35.387-25.44 58.519.247 16.428 10.039 24.462 26.36 22.761 18.277-1.897 31.174-12.379 41.417-26.762 10.4-14.596 16.42-31.222 21.489-48.185 1.815-6.07 4.97-10.309 11.237-12.009-9.167-8.986-8.921-22.072.854-30.475 9.282-7.984 20.29-9.98 31.847-6.53 14.046 4.189 17.767 20.88 7.261 31.156-1.66 1.627-3.598 2.958-5.56 4.56 2.151.928 5.74-.025 4.123 4.493-5.142 14.407-9.956 28.939-15.238 44.422 8.387-2.34 15.936-9.848 25.243-4.583zm-28.956-46.025c5.463-.32 11.295-.953 16.355-4.51 5.34-3.753 7.615-8.928 6.686-15.31-.87-5.99-4.821-9.653-10.333-11.394-6.218-1.971-12.552-1.89-18.671.649-7.861 3.253-12.913 11.623-11.64 19.098 1.249 7.303 7.319 11.36 17.603 11.467zm116.545 64.433c2.094-3.598 4.197-7.196 7.023-12.05 3.515 14.26 12.633 18.145 25.127 16.716 15.952-1.832 28.413-8.387 33.712-24.602 1.15-3.524 1.98-6.76 6.448-6.933l-.099-.164c.83 6.982-2.521 13.167-3.869 19.722-.805 3.927.009 4.912 4.017 4.436 16.322-1.897 16.15-1.848 20.125-17.76 2.448-9.782 3.598-19.96 8.026-29.176 1.24-2.58 2.226-6.76 6.029-5.578 4.255 1.314 2.735 5.57 2.037 8.576-1.963 8.46-4.838 16.716-5.52 25.464-.74 9.537 3.762 13.513 13.241 11.558 10.276-2.12 15.583-9.816 20.635-18.877 3.713 9.167 9.7 14.589 19.82 13.275 9.291-1.2 16.339-5.775 20.586-14.211 1.166-2.308 2.965-3.327 5.158-4.378 4.576-2.194 7.59-5.726 8.732-11.714-4.542.797-5.076 5.849-9.857 5.725 1.43-8.033 1.134-16.01-1.511-23.739 4.074 3.45 4.172 3.762 4.747 15.993 2.703 1.487 4.551-4.485 7.262-.985 2.382 3.088 1.88 6.653.345 10.062-.288.64-.559 1.38-1.068 1.815-8.502 7.204-14.416 17.177-23.813 23.272-10.26 6.653-20.635 5.577-30.32-2.112-1.921-1.527-2.866-1.626-4.336.65-1.512 2.324-3.615 4.37-5.791 6.127-13.078 10.564-24.651 7.204-31.124-9.898-1.265 4.74-2.892 8.543-3.18 12.428-.402 5.496-3.531 6.966-8.172 7.55-7.229.92-14.433 2.077-21.645 3.178-3.409.518-7.64 2.637-5.775-5.98-10.21 10.473-20.905 13.71-32.964 13.209-7.836-.32-14.983-2.235-19.804-8.913-1.208-1.667-2.9-1.692-4.222-2.686z"/><path d="M413.394 84.45c-13.003-5.8-26.672.804-28.61 13.832-1.298 8.765 2.144 12.765 11.286 12.675-.846 6.736-2.661 12.913-8.181 17.307-2.193 1.742-4.641 3.385-7.722 1.676-2.89-1.602-2.603-4.403-2.25-6.892 2.103-14.933 6.062-29.497 9.298-44.21.707-3.194 1.421-6.382 2.185-9.832-6.678 0-13.003.115-19.311-.04-3.516-.091-4.223 2.037-4.872 4.78-2.267 9.619-4.608 19.222-7.072 28.783-1.668 6.465-4.822 12.272-9.027 17.406-1.832 2.226-3.828 5.766-7.385 3.754-2.982-1.7-1.643-4.978-.896-7.713 3.64-13.398 7.073-26.861 11.016-40.168 1.446-4.904.304-6.292-4.617-5.906-4.928.386-9.922.591-14.843.197-4.296-.345-6.612 1.125-7.023 5.504-2.259-.805-3.253-2.317-4.083-4 9.43-8.273 20.947-3.508 31.453-5.06 4.411-.65 5.167 1.585 3.614 6.825 10.802-11.097 23.181-6.128 34.402-7.606 3.647-.485 2.924 2.029 2.472 4.107-.895 4.074-1.89 8.124-2.957 12.666 4.723-1.281 8.65-2.932 12.675-3.269 4.14-.345 9.183-.953 10.448 5.183z"/><path d="M526.751 66.041c-20.28-8.855-36.947 6.76-39.51 22.852-.805 5.02-3.031 9.39-5.668 13.554-1.265 1.988-2.275 5.56-5.487 4.074-2.465-1.142-1.372-4.074-.855-6.407 1.274-5.742 2.604-11.484 3.524-17.291.871-5.61 1.832-11.763-4.025-15.353-5.906-3.622-12.149-2.185-18.342.132-2.037.764-3.935 6.629-7.508-.18-1.585-3.048-9.71-.453-14.819-.042-3.523.28-2.513 4.099-3.236 6.292-1.479 4.452-2.415 9.102-3.31 13.718-1.019 5.249-3.475 9.175-9.176 11.056-1.659-4.665-3.318-9.356-4.986-14.038 2.793-1.84 2.793 2.317 5.315 2.185.986-4 2.25-8.148 3.006-12.379 1.134-6.374 5.323-9.627 11.164-9.528 7.277.123 14.711-3.713 21.899.534.394.23 1.265-.378 1.922-.559 17.743-4.715 22.343-2.12 26.836 16.108 6.465-12.264 16.067-18.868 29.284-19.829 7.097-.517 11.426 1.002 13.972 5.101zM321.386 71.7c-12.749-6.037-20.051-3.983-27.953 7.96-7.418 11.213-8.223 24.282-10.227 36.998-.879 5.593-2.062 11.105-4.444 16.256-3.762 8.156-9.2 11.155-19.583 10.53 7.516-7.844 14.917-15.566 7.155-26.77 4.485.107 4.814 4.501 7.943 8.51.666-7.122 1.2-12.749 1.7-18.392.912-10.407 3.097-20.396 9.381-29.087 7.262-10.046 17.39-12.995 29.136-11.664 4.354.51 5.266 1.52 6.892 5.66z"/><path d="M529.553 68.883c-1.734-.213-2.432-1.454-2.9-2.924 2.924-.953 3.672.23 2.9 2.924zm-342.75 1.446c-1.536.214-1.7-.657-1.47-1.848.493.616.977 1.232 1.47 1.848zm316.127 31.387c1.232-9.71 2.637-19.747 7.344-28.923 1.026-2.004 2.226-4.353 5.133-4.164 2.317.156 2.917 2.078 3.565 3.877 1.027 2.883.083 4.468-2.57 6.292-6.153 4.247-6.933 11.262-2.637 17.899 2.415 3.746-.173 11.434-4.321 12.855-3.943 1.34-6.678-1.79-6.514-7.836zM252.46 136.29c-2.604-4.732-2.3-8.913.912-12.675 1.602-1.881 3.754-2.99 6.16-1.298 2.17 1.528 1.71 3.762.773 5.668-1.651 3.376-3.927 6.309-7.845 8.305zm146.05-37.334c-.173 3.097-2.267 3.844-4.846 3.926-1.545.041-3.097-.484-2.637-2.324.616-2.522 1.684-5.11 4.92-5.126 2.177-.017 2.415 1.815 2.563 3.524zm23.41 6.694c.272-.246.551-.492.83-.73l.025.607c-.312-.008-.624-.024-.945-.04l.09.163z"/></g><path d="M233.074 68.078c-10.284-.107-16.354-4.164-17.603-11.475-1.273-7.475 3.779-15.846 11.64-19.098 6.12-2.539 12.46-2.613 18.67-.65 5.504 1.742 9.464 5.406 10.334 11.394.92 6.374-1.347 11.557-6.686 15.311-5.06 3.565-10.892 4.198-16.355 4.518z" fill="#2B2A7A"/></g></svg>