<svg xmlns="http://www.w3.org/2000/svg" width="1316" height="550" viewBox="0 0 1316 550">
  <defs>
    <style>
      .cls-1, .cls-2, .cls-3, .cls-4, .cls-5 {
        fill-rule: evenodd;
      }

      .cls-2, .cls-3, .cls-5 {
        fill: #fff;
      }

      .cls-3 {
        stroke: #0a0b0c;
      }

      .cls-3, .cls-5 {
        stroke-linecap: round;
        stroke-width: 6.25px;
      }

      .cls-4 {
        fill: #f7d007;
      }

      .cls-5 {
        stroke: #000;
      }
    </style>
  </defs>
  <path id="Эллипс_1" data-name="Эллипс 1" class="cls-1" d="M796.36,303.508q-5.1.746-9.162,1.118t-7.329.37c-2.184,0-4.623-.124-7.33-0.37s-5.7-.621-8.968-1.118l-5.933-62.341a67.78,67.78,0,0,1,11.41-2.451,90.2,90.2,0,0,1,11.051-.708,91.573,91.573,0,0,1,10.917.708,61.349,61.349,0,0,1,11.277,2.451ZM758.041,522.782a183.51,183.51,0,0,1-25.307,3.366q-15.185,1.117-26.432,1.122-14.63,0-28.962-1.122a133.739,133.739,0,0,1-22.776-3.366l-34.883-61.5v61.494a226.451,226.451,0,0,1-26.337,3.653q-11.768.843-20.733,0.843-9.535,0-21.294-.843a226.189,226.189,0,0,1-26.337-3.653V233.3a189.6,189.6,0,0,1,24.376-3.934q12.043-1.121,23.255-1.124,10.638,0,22.975,1.124a171.553,171.553,0,0,1,24.1,3.934V377.8l32.95-55.939a181.921,181.921,0,0,1,24.744-3.367q14.618-1.118,25.87-1.122,14.617,0,29.525,1.122a150.146,150.146,0,0,1,23.9,3.367l-60.446,92.962Zm-306.634,5.486q-9.564,0-21.359-1.125t-25.856-3.373V349.76a190.711,190.711,0,0,1,24.451-3.935q12.08-1.121,23.326-1.124,10.671,0,23.045,1.124a172.547,172.547,0,0,1,24.169,3.935V523.77q-14.622,2.241-26.418,3.373T451.407,528.268Zm0.234-205.3A47.375,47.375,0,1,1,499,275.594,47.368,47.368,0,0,1,451.641,322.969ZM331.46,528.268q-9.564,0-21.359-1.125t-25.856-3.373V233.678a190.716,190.716,0,0,1,24.451-3.936q12.079-1.119,23.326-1.124,10.671,0,23.045,1.124a172.548,172.548,0,0,1,24.169,3.936V523.77q-14.622,2.241-26.417,3.373T331.46,528.268Zm-96.4-1.687q-15.175,1.12-26.417,1.125-14.623,0-28.947-1.125a133.281,133.281,0,0,1-22.764-3.373L94.69,415.2V522.774a226.432,226.432,0,0,1-26.337,3.653q-11.767.843-20.733,0.843-9.535,0-21.294-.843A226.186,226.186,0,0,1-.011,522.774V233.3a189.6,189.6,0,0,1,24.376-3.934q12.043-1.121,23.255-1.124,10.638,0,22.975,1.124a171.541,171.541,0,0,1,24.1,3.934v99.026L155,233.678A181.474,181.474,0,0,1,179.73,230.3q14.61-1.119,25.856-1.124,14.608,0,29.509,1.124a149.756,149.756,0,0,1,23.888,3.374L170.716,368.6l89.637,154.6A182.9,182.9,0,0,1,235.059,526.581Z"/>
  <path id="S_копия_2" data-name="S копия 2" class="cls-1" d="M860,369c-12.241,0-15.881,3.359-15.986,9.108-0.117,6.341,7.279,7.785,34.408,14.669,28.122,7.54,49.966,16.349,63.306,32.208,6.85,8.29,11.1,22.742,11.1,36.078,0,17.9-7.574,33.62-21.17,45.22C916.518,519.2,893.349,526.778,859,527c-79.833.516-88-8-88-53,0,0,26.188-.527,86,0,8.866,0,16-2.22,16-9s-7.4-10.11-41.654-19.482c-28.483-7.208-42.986-14.254-54.884-29.392-6.13-7.569-10.014-19.661-10.014-32.636,0-40.43,38.037-66.959,91.762-65.309,91.6,0,88.79,12.726,88.79,50.819C934.9,369,910.732,369.119,860,369Z"/>
  <path id="Фигура_4_копия_4" data-name="Фигура 4 копия 4" class="cls-1" d="M854.425,299.645L824.2,267.282l0.046,16.3Z"/>
  <path id="Фигура_4_копия_6" data-name="Фигура 4 копия 6" class="cls-1" d="M843.872,311.475L815.8,302.031l6.01,9.469Z"/>
  <path id="Фигура_4_копия_4-2" data-name="Фигура 4 копия 4" class="cls-1" d="M863.637,295.241l-7.512-45.632-9.906,13.237Z"/>
  <path id="Фигура_4_копия_4-3" data-name="Фигура 4 копия 4" class="cls-1" d="M872.475,294.291l8.543-35.281,9.994,14Z"/>
  <path id="рука_права0" data-name="рука права0" class="cls-2" d="M1243.58,285.448s-3.46-10.381,9.28-10.378c9.53,0,24.74-1.437,36.65-6.358,34.06-14.067,12.21-54.168-.97-63.852-5.28-3.885-25.18,9.674-25.18,9.674s3.67-14.562,1.94-24.186c-2.58-14.319-4.07-19.227-15.5-17.414-4.52.717-7.58,4.087-6.22,7.422,2.63,6.5,3.17,12.579,1.38,18.7-2.93,9.992-8.38,15.48-9.69,18.382-4.48,9.922-7.42,31.345-8.13,31.7Z"/>
  <path id="рука_права0_копия_2" data-name="рука права0 копия 2" class="cls-1" d="M1290.84,271.365c-12.87,5.315-29.29,6.869-39.58,6.867-2.62,0-5.76-.892-7.26-0.232,0.06-3.109,2.57-7,10-7,8.77,0,22.68-.789,33.65-5.305,31.37-12.91,11.4-48.535-.73-57.462-4.86-3.581-25.17,10.918-25.17,10.918-2.87.017,1.33-18.659,0.25-27.151-1.56-12.2-1.14-16.681-10.73-15.2-4.17.645-4.63,3.46-2.73,7.842,2.57,5.932.92,12.6-.73,18.237-2.69,9.211-8.68,14.283-9.91,16.944-5.16,11.116-4.83,28.9-5.49,29.22l12.02,30.617c-5.43,3.02-3.19,9.774-3.19,9.774l-17.76-39.212c0.77-.381,3.95-23.514,8.79-34.228,1.41-3.133,6.3-9.06,9.45-19.849,1.94-6.609.11-10.436-.72-13.148-2.26-7.435,2.75-11.5,7.23-12.45,12.23-2.6,17.72.725,20.46,16.195C1270.28,195.712,1268,207,1268,207s15.13-8.964,21-5C1305.83,213.362,1327.61,256.176,1290.84,271.365Z"/>
  <path id="Фигура_10" data-name="Фигура 10" class="cls-3" d="M1287.85,249.556c-3.13,1.522-8.05,6.556-4.33,15.466,6.47,7.874,32.7-4.18,27.85-20.67a5.306,5.306,0,0,0-6.22-4.856"/>
  <path id="Фигура_9" data-name="Фигура 9" class="cls-3" d="M1275.55,237.942c-7.01,4.231-2,12.344.4,14.323,5.11,4.21,20.35-3.122,29.34-12.124,6.38-5.171,5.99-26.848-7.04-21.645"/>
  <path id="Фигура_8" data-name="Фигура 8" class="cls-3" d="M1279.83,217.437c-2.78,2.77-13.91,8.262-7.75,17.414,11.08,17.406,44.92-31.281,14.13-30.73"/>
  <path id="рука0" class="cls-4" d="M1145.92,268.387s61.86-25.854,71.33-35.6,21.84,14.623,24.25,19.935c8.04,17.7,8.56,38.447,8.56,38.447s-70.59,58.82-72.75,52.685C1165.37,310,1145.92,268.387,1145.92,268.387Z"/>
  <path id="рукав_копия" data-name="рукав копия" class="cls-1" d="M1175.33,349c-0.6-1.691-1.23-4.407-1.87-6.134,9.18-1.349,72.07-53.859,72.07-53.859s-0.48-17.332-7.98-33.83c-2.25-4.951-12.61-23.817-16.55-19.177-6.25,7.358-62.38,32.819-77.96,39.323a54.313,54.313,0,0,1-2.56-6.2s68.29-31.051,76.65-39.207c10.18-9.924,23.86,15.284,26.39,20.836,8.41,18.5,8.95,41.183,8.95,41.183S1177.59,355.412,1175.33,349Z"/>
  <path id="ліва_рука0" data-name="ліва рука0" class="cls-2" d="M888.5,323.856l35.585,0.865c15.554-1.138,25.522-8.333,20.642-15.95s-1.839-10.647-16.513-8.134c0,0-35.337,3.571-51.141,6.076s-27.972.088-28.052,8.7C848.964,321.52,865.43,324.414,888.5,323.856Z"/>
  <path id="ліва_рука0_копия_2" data-name="ліва рука0 копия 2" class="cls-1" d="M927.543,327.367l-38.877-1.1c-25.2.71-43.194-2.971-43.132-10.735,0.088-10.964,13.38-8.888,30.648-12.075s55.873-6.731,55.873-6.731c16.031-3.2,12.71.656,18.041,10.348S944.537,325.919,927.543,327.367Zm10.874-15.782c-4.435-5.286-.672-9.388-14.007-7.644,0,0-29.48,3.959-47.474,6.217-14.355,1.8-23.955,1.66-23.936,4.842,0.007,1.224,13.356,5.441,34.32,5.054l32.338,1.6C933.793,320.865,942.851,316.872,938.417,311.585Z"/>
  <path id="Фигура_7_копия" data-name="Фигура 7 копия" class="cls-5" d="M917.558,312.247s-26.091-2.167-26.231,5.647c-0.213,11.884,4.324,7.857,27.2,9.832,27.808,2.4,35.012-5.871,30.878-12.607s-6.668-7.9-6.668-7.9"/>
  <path id="ноги0" class="cls-2" d="M1184.95,390.389c5.11,26.8,6.37,53.011,7.92,71.817,2.37,28.964,2.07,44.777,2.07,44.777s-1.5,13.214-45.5,15.511c-30.51,2.38-40.09-7.544-40.09-7.544V469.011c0-2.69,14.26-8.594,14.26-8.594l-19.11,4.055s-2.9,58.462-2.29,67.142c0.79,10.975-37.76,15.175-49.92,14.239S1004.8,535,1005.21,524.494c0.26-6.589,7.77-48.179,7.77-48.179l74.17-65.991S1184.79,389.539,1184.95,390.389Z"/>
  <path id="ноги" class="cls-1" d="M1021.02,408.856c-4.56,44.828-17.28,102.5-17.81,116.159-0.41,10.5,20.31,20.47,48.08,23.359,14.04,1.462,52.52-5.013,52.71-14.374,0.35-19.154.77-46.511,2.82-72.311-0.02,12.458,1.1,56.757,1.1,56.783,0,0,11.46,9.8,40.52,7.543,44-2.277,48.92-17.511,48.92-17.511s0.31-8.269-2.07-37.233c-1.54-18.806-3.23-46.02-8.34-72.817,1.7-.866-4.93,4.865-4.8,5.679,4.57,30.589,5.42,50.433,6.89,68.324,2.26,27.555,1.97,33.519,1.97,33.519s-4.54,11.311-44.54,13.611c-27.28,2.273-33.68-7.128-33.68-7.128l-1-47.527-10.25-9.674s-2.82,65.824-2.82,74.1c0,8.887-36.34,13.62-47.9,12.546-17.3-1.6-42.88-11.151-41.83-19.32,1.66-12.9,14.08-72.909,18.86-115.509C1028.51,401.228,1021.64,402.7,1021.02,408.856Z"/>
  <path id="тело0" class="cls-4" d="M1184.95,388.454a691.869,691.869,0,0,1,9.34,71.817c2.38,28.964,2.07,35.233,2.07,35.233s-5.92,16.214-49.92,18.511c-30.51,2.38-38.52-8.543-38.52-8.543V467.077c0-2.691,17.12-8.595,17.12-8.595l-20.54,2.631s-1.48,51.342-.86,60.022c0.78,10.976-39.19,15.176-51.35,14.239s-47.49-10.856-47.08-21.359c0.53-13.658,15.48-71.308,19.81-116.159,3.03-31.416.93-60.546,0.06-64.325,0.25,12.043-3.86,35.256-4.92,35.612-18.36-5.911-81.785-4.523-81.785-4.523A84.554,84.554,0,0,1,926.43,322.1c0-24.4,9.349-25.178,9.349-25.178l83.891-6.152a7.837,7.837,0,0,0,2.66-.564l12.84-5.7,97-17.087h12.84s29.41,56.171,41.6,113.674c0.24,1.127-8.91,12.058-99.46,27.3C1152.09,408.155,1184.79,387.6,1184.95,388.454Z"/>
  <path id="тело_копия_2" data-name="тело копия 2" class="cls-1" d="M1198.36,496.5s-7.92,18.214-51.92,20.511c-30.51,2.38-39.52-8.543-39.52-8.543s0.71,2.662.08,16.528c-0.19,9.361-42.58,14.688-54.71,13.374-23.19-2.511-50.49-13.856-50.08-24.359,0.53-13.658,15.25-71.331,19.81-116.159,0.62-6.153,1.38-18.258,1.98-24.856-0.46-.646-1.5-0.885-3.84-1.857-18.59-5.175-82.785-1.523-82.785-1.523S924.43,346.5,924.43,322.1s10.349-28.178,10.349-28.178l84.891-6.152a7.837,7.837,0,0,0,2.66-.564l12.84-5.7,97-14.087,15.84-1s29.41,57.171,41.6,114.674c0.93,4.1.04,5.5-1.66,6.361,5.11,26.8,7.8,54.011,9.34,72.817C1199.67,489.235,1198.36,496.5,1198.36,496.5Zm-7.32-35.047c-1.47-17.891-3.32-37.735-7.89-68.324-0.13-.814-56.02,23.458-126.14,17.965,97.31-8.488,126.22-29.025,125.99-30.1-11.6-54.706-41-111-41-111l-14.11,1.985L1040,286l-16.71,7.66a7.511,7.511,0,0,1-2.53.537l-83.889,5.852s-6.695.751-5.9,23.954c0.735,21.535,10.374,39.455,10.374,39.455s61.4-4.32,78.877,1.3c4.41-27.988,2.23-33.211-.22-60.761,4.25,7.836,10.48,31.482,10.39,62.25-0.46,6.774-.88,23.978-1.54,29.828-4.78,42.6-19.2,103.611-20.86,116.509-1.05,8.169,32.24,18.43,43.83,19.32s50.64-2.1,49.9-12.546c-0.59-8.258,1.82-61.1,1.82-61.1l43.55-7.5s-35.3,13.617-35.3,16.177v37.527s3.64,8.464,32.68,6.128c40.01-2.185,48.54-16.611,48.54-16.611S1193.3,489.012,1191.04,461.457Z"/>
  <path id="голова0" class="cls-2" d="M1176.41,189.531A99.158,99.158,0,1,1,1029.74,102.4a22.349,22.349,0,0,1,11.41-16.391c34.64-18.756,55.54-31.61,49.79-53.359,14.96,8.747,8.72,31.926,8.72,31.926s40.36-40.728,48.43-49.34c-0.47,1.14-25.33,32.827-32.34,66.743-1.5,6.191.96,12.586,4.62,18.155A99.268,99.268,0,0,1,1176.41,189.531Z"/>
  <path id="голова0_копия_2" data-name="голова0 копия 2" class="cls-1" d="M1179.48,189.776a102.482,102.482,0,1,1-151.59-90.161,23.162,23.162,0,0,1,11.79-16.962c18.06-9.789,32.51-18.024,41.63-26.67,8.96-8.5,8.62-18.446,4.69-28.983,21.16,6.2,18,29,18,29s43.66-44.088,52-53c-20.18,41.831-28.19,43.757-36,76-1.55,6.406-2.21,14.6,1.57,18.269A102.731,102.731,0,0,1,1179.48,189.776Zm-6.96.219A95.109,95.109,0,0,1,1077,285c-52.75,0-95.518-42.249-95.518-95,0-26.934,11.147-52.26,29.078-69.624,6.15-5.955,16.1-12.092,23.67-16.233,0.37-2.593-.78-10.032,7.99-14.776,18.33-9.914,32.66-17.812,40.94-26.386,6.8-7.039,12.19-14.44,11.84-20.976,1.58,1.527,3.24,7.131,2.61,15.5C1097,65.68,1093,76,1093,76s28.23-27.711,36-36c-0.46,1.1-10.16,12.84-16.91,45.483a18.293,18.293,0,0,0,5.45,17.473C1147.72,117.284,1172.55,148.774,1172.52,190Z"/>
  <path id="Эллипс_1_копия_2" data-name="Эллипс 1 копия 2" class="cls-1" d="M1018.75,154.635c12.73,4.09,9.07,18.155,3.9,26.124-3.9,6.02-10.05,8.474-14.82,6.926-4.9-1.593-8.74-7.554-8.355-15.268C1000.04,161.026,1004.56,150.077,1018.75,154.635Z"/>
  <path id="smile_2_копия" data-name="smile 2 копия" class="cls-1" d="M1047.49,258.633c-8.25-1.092-18.64-1.518-21.82-8.423-9.47-20.517-15.02-30.183-25.792-42.187,2.622-2.37,8.892,10.536,47.5,14.306,48.93,4.78,69.07-6.778,72.21-2.73S1088.59,264.075,1047.49,258.633Zm60.29-34.932c-2.24-1.551-24.96,4.8-60.82,1.437-28.29-2.651-32.67-8.437-34.64-7.679,0.84,3.082,3.16,10.447,8.64,14.434,4.81,3.5,11.84,4.7,25.48,6.208C1076.54,241.432,1110.02,225.252,1107.78,223.7Z"/>
  <path id="Фигура_4" data-name="Фигура 4" class="cls-1" d="M1070.75,186l45.75,6.353-9.93-6.95s13.1-3.905,14.32-6.255-17.75-.436-25.92,1.291S1070.75,186,1070.75,186Z"/>
</svg>
