<svg xmlns="http://www.w3.org/2000/svg" width="48" height="48" viewBox="0 0 48 48">
  <defs>
    <style>
      .cls-1, .cls-3, .cls-5 {
        fill: #fff;
      }

      .cls-1, .cls-2, .cls-3, .cls-4, .cls-5 {
        fill-rule: evenodd;
      }

      .cls-3 {
        stroke: #0a0b0c;
      }

      .cls-3, .cls-5 {
        stroke-linecap: round;
        stroke-width: 0.559px;
      }

      .cls-4 {
        fill: #f7d007;
      }

      .cls-5 {
        stroke: #000;
      }
    </style>
  </defs>
  <path id="рука_права0" data-name="рука права0" class="cls-1" d="M38.529,24.912s-0.309-.906.829-0.906a9.511,9.511,0,0,0,3.275-.555c3.044-1.228,1.091-4.727-.087-5.573-0.472-.339-2.251.844-2.251,0.844a6.177,6.177,0,0,0,.173-2.111c-0.231-1.25-.363-1.678-1.385-1.52a0.541,0.541,0,0,0-.556.648,2.35,2.35,0,0,1,.123,1.632,6.249,6.249,0,0,1-.865,1.6,22.685,22.685,0,0,0-.727,2.766Z"/>
  <path id="рука_права0_копия_2" data-name="рука права0 копия 2" class="cls-2" d="M42.751,23.683a10.269,10.269,0,0,1-3.536.6,2.562,2.562,0,0,0-.649-0.02,0.734,0.734,0,0,1,.894-0.611,8.619,8.619,0,0,0,3.007-.463c2.8-1.127,1.018-4.236-.065-5.015-0.435-.313-2.25.953-2.25,0.953-0.256,0,.119-1.628.023-2.37-0.139-1.065-.1-1.456-0.959-1.326-0.372.056-.413,0.3-0.244,0.684a2.311,2.311,0,0,1-.065,1.592,5.156,5.156,0,0,1-.886,1.479,9.513,9.513,0,0,0-.49,2.55L38.6,24.407a0.721,0.721,0,0,0-.285.853l-1.587-3.422a24.514,24.514,0,0,1,.785-2.987,7.569,7.569,0,0,0,.845-1.732,1.638,1.638,0,0,0-.065-1.147,0.807,0.807,0,0,1,.646-1.087c1.093-.227,1.583.063,1.828,1.413a5.538,5.538,0,0,1-.062,1.768s1.352-.782,1.877-0.436C44.091,18.621,46.038,22.357,42.751,23.683Z"/>
  <path id="Фигура_10" data-name="Фигура 10" class="cls-3" d="M42.485,21.779a0.966,0.966,0,0,0-.387,1.35c0.578,0.687,2.922-.365,2.489-1.8a0.472,0.472,0,0,0-.556-0.424"/>
  <path id="Фигура_9" data-name="Фигура 9" class="cls-3" d="M41.386,20.766a0.77,0.77,0,0,0,.035,1.25c0.457,0.367,1.819-.272,2.622-1.058,0.571-.451.535-2.343-0.629-1.889"/>
  <path id="Фигура_8" data-name="Фигура 8" class="cls-3" d="M41.768,18.976c-0.248.242-1.243,0.721-.692,1.52,0.99,1.519,4.014-2.73,1.263-2.682"/>
  <path id="рука0" class="cls-4" d="M29.8,23.423s5.527-2.256,6.374-3.107,1.952,1.276,2.167,1.74a9.682,9.682,0,0,1,.765,3.355s-6.308,5.133-6.5,4.6C31.54,27.055,29.8,23.423,29.8,23.423Z"/>
  <path id="рукав_копия" data-name="рукав копия" class="cls-2" d="M32.429,30.458c-0.053-.148-0.109-0.385-0.166-0.535,0.82-.118,6.44-4.7,6.44-4.7a8.444,8.444,0,0,0-.713-2.952c-0.2-.432-1.127-2.079-1.479-1.674-0.558.642-5.575,2.864-6.966,3.432a4.744,4.744,0,0,1-.229-0.541s6.1-2.71,6.85-3.422c0.909-.866,2.132,1.334,2.358,1.818a10.408,10.408,0,0,1,.8,3.594S32.631,31.018,32.429,30.458Z"/>
  <path id="ліва_рука0" data-name="ліва рука0" class="cls-1" d="M6.8,28.264l3.18,0.076c1.39-.1,2.281-0.727,1.845-1.392s-0.164-.929-1.476-0.71c0,0-3.158.312-4.57,0.53s-2.5.008-2.507,0.76C3.265,28.06,4.736,28.313,6.8,28.264Z"/>
  <path id="ліва_рука0_копия_2" data-name="ліва рука0 копия 2" class="cls-2" d="M10.287,28.57l-3.474-.1c-2.252.062-3.86-.259-3.854-0.937,0.008-.957,1.2-0.776,2.739-1.054S10.69,25.9,10.69,25.9c1.433-.279,1.136.057,1.612,0.9S11.805,28.444,10.287,28.57Zm0.972-1.377c-0.4-.461-0.06-0.819-1.252-0.667,0,0-2.634.346-4.242,0.543-1.283.157-2.141,0.145-2.139,0.423a6.446,6.446,0,0,0,3.067.441l2.89,0.14C10.845,28,11.655,27.654,11.259,27.193Z"/>
  <path id="Фигура_7_копия" data-name="Фигура 7 копия" class="cls-5" d="M9.395,27.251s-2.331-.189-2.344.493c-0.019,1.037.386,0.686,2.431,0.858,2.485,0.21,3.129-.512,2.759-1.1a1.836,1.836,0,0,0-.6-0.69"/>
  <path id="ноги0" class="cls-1" d="M33.289,34.07A55.164,55.164,0,0,1,34,40.338c0.212,2.528.185,3.908,0.185,3.908S34.048,45.4,30.116,45.6c-2.726.208-3.582-.658-3.582-0.658V40.932a3.628,3.628,0,0,1,1.275-.75l-1.708.354s-0.26,5.1-.2,5.86c0.07,0.958-3.375,1.324-4.462,1.243s-4.243-.947-4.207-1.864c0.023-.575.695-4.2,0.695-4.2l6.627-5.759S33.275,34,33.289,34.07Z"/>
  <path id="ноги" class="cls-2" d="M18.64,35.682c-0.407,3.912-1.544,8.945-1.591,10.137-0.036.917,1.815,1.786,4.3,2.039,1.255,0.128,4.694-.437,4.711-1.255,0.031-1.672.068-4.059,0.252-6.311,0,1.087.1,4.953,0.1,4.956s1.024,0.855,3.621.658c3.932-.2,4.372-1.528,4.372-1.528s0.027-.722-0.185-3.249a57.553,57.553,0,0,0-.745-6.355c0.151-.075-0.44.425-0.429,0.5,0.409,2.67.485,4.4,0.616,5.963,0.2,2.4.176,2.925,0.176,2.925s-0.406.987-3.98,1.188c-2.437.2-3.009-.622-3.009-0.622l-0.089-4.148-0.916-.844s-0.252,5.745-.252,6.467c0,0.776-3.247,1.189-4.281,1.095-1.546-.14-3.832-0.973-3.738-1.686,0.148-1.126,1.258-6.363,1.685-10.081C19.309,35.016,18.7,35.145,18.64,35.682Z"/>
  <path id="тело0" class="cls-4" d="M33.289,33.9a59.027,59.027,0,0,1,.835,6.268c0.212,2.528.185,3.075,0.185,3.075s-0.53,1.415-4.462,1.615c-2.726.208-3.442-.746-3.442-0.746V40.763a4.619,4.619,0,0,1,1.53-.75l-1.835.23s-0.132,4.481-.077,5.238c0.07,0.958-3.5,1.324-4.589,1.243s-4.243-.947-4.207-1.864c0.047-1.192,1.383-6.223,1.77-10.137A27.225,27.225,0,0,0,19,29.108a12.025,12.025,0,0,1-.44,3.108c-1.64-.516-7.308-0.395-7.308-0.395a7.26,7.26,0,0,1-1.067-3.711c0-2.13.835-2.2,0.835-2.2l7.5-.537a0.717,0.717,0,0,0,.238-0.049l1.147-.5,8.668-1.491H29.72a44.127,44.127,0,0,1,3.717,9.921c0.021,0.1-.8,1.052-8.888,2.382A19.962,19.962,0,0,0,33.289,33.9Z"/>
  <path id="тело_копия_2" data-name="тело копия 2" class="cls-2" d="M34.488,43.331s-0.708,1.59-4.64,1.79c-2.726.208-3.531-.746-3.531-0.746a6.751,6.751,0,0,1,.007,1.442c-0.017.817-3.805,1.282-4.889,1.167-2.072-.219-4.511-1.209-4.475-2.126,0.047-1.192,1.363-6.225,1.77-10.137,0.056-.537.123-1.593,0.177-2.169a0.944,0.944,0,0,0-.344-0.162c-1.661-.452-7.4-0.133-7.4-0.133a9.56,9.56,0,0,1-1.157-4.148c0-2.13.925-2.459,0.925-2.459l7.586-.537a0.717,0.717,0,0,0,.238-0.049l1.147-.5,8.668-1.229,1.415-.087a45.8,45.8,0,0,1,3.717,10.008c0.083,0.358,0,.48-0.148.555a60.288,60.288,0,0,1,.835,6.355A15.781,15.781,0,0,1,34.488,43.331Zm-0.654-3.059c-0.131-1.561-.3-3.293-0.706-5.963a28.844,28.844,0,0,1-11.271,1.568c8.7-.741,11.279-2.533,11.258-2.627a43.82,43.82,0,0,0-3.664-9.687l-1.261.173L20.336,24.96l-1.493.668a0.682,0.682,0,0,1-.226.047l-7.5.511s-0.6.066-.527,2.09a8.6,8.6,0,0,0,.927,3.443s5.486-.377,7.049.114a15.4,15.4,0,0,0-.02-5.3,13.3,13.3,0,0,1,.929,5.433c-0.042.591-.079,2.093-0.138,2.6-0.427,3.718-1.716,9.042-1.864,10.168-0.094.713,2.881,1.608,3.916,1.686s4.526-.184,4.459-1.095c-0.053-.721.163-5.333,0.163-5.333l3.892-.655a19.556,19.556,0,0,0-3.154,1.412v3.275s0.325,0.739,2.92.535c3.575-.191,4.338-1.45,4.338-1.45S34.036,42.677,33.834,40.273Z"/>
  <path id="голова0" class="cls-1" d="M32.526,16.541a8.863,8.863,0,0,1-17.722,0,8.633,8.633,0,0,1,4.615-7.6,1.95,1.95,0,0,1,1.02-1.431c3.1-1.637,4.964-2.759,4.45-4.657,1.337,0.763.779,2.786,0.779,2.786S29.274,2.082,30,1.33a17.02,17.02,0,0,0-2.89,5.825,2.027,2.027,0,0,0,.413,1.584A8.649,8.649,0,0,1,32.526,16.541Z"/>
  <path id="голова0_копия_2" data-name="голова0 копия 2" class="cls-2" d="M32.8,16.562a9.16,9.16,0,0,1-18.316,0,8.935,8.935,0,0,1,4.77-7.869,2.018,2.018,0,0,1,1.054-1.48,18.7,18.7,0,0,0,3.72-2.328,2.1,2.1,0,0,0,.419-2.529,2.3,2.3,0,0,1,1.608,2.531S29.957,1.04,30.7.262c-1.8,3.651-2.519,3.819-3.217,6.633a1.8,1.8,0,0,0,.14,1.594A8.951,8.951,0,0,1,32.8,16.562Zm-0.622.019a8.4,8.4,0,0,1-8.536,8.291,8.327,8.327,0,0,1-5.937-14.368,10.724,10.724,0,0,1,2.115-1.417,1.309,1.309,0,0,1,.714-1.29,16.173,16.173,0,0,0,3.659-2.3,2.864,2.864,0,0,0,1.058-1.831,2,2,0,0,1,.233,1.352,6.755,6.755,0,0,1-.412,1.615s2.522-2.418,3.217-3.142A10.216,10.216,0,0,0,26.778,7.46a1.574,1.574,0,0,0,.487,1.525A8.356,8.356,0,0,1,32.178,16.581Z"/>
  <circle id="Эллипс_1_копия_2" data-name="Эллипс 1 копия 2" cx="17.953" cy="14.906" r="1.234"/>
  <path id="smile_2_копия" data-name="smile 2 копия" class="cls-2" d="M21.005,22.572c-0.737-.1-1.665-0.132-1.95-0.735a12.724,12.724,0,0,0-2.3-3.682c0.235-.207.795,0.919,4.245,1.249,4.373,0.417,6.172-.592,6.453-0.238S24.678,23.047,21.005,22.572Zm5.388-3.049a36.015,36.015,0,0,1-5.435.125,11.178,11.178,0,0,1-3.1-.67,2.347,2.347,0,0,0,.773,1.26,4.983,4.983,0,0,0,2.277.542C23.6,21.071,26.593,19.658,26.393,19.523Z"/>
  <path id="Фигура_4" data-name="Фигура 4" class="cls-2" d="M23.084,16.233l4.088,0.554-0.887-.607a4.413,4.413,0,0,0,1.28-.546c0.109-.205-1.587-0.038-2.317.113S23.084,16.233,23.084,16.233Z"/>
</svg>
