<?xml version="1.0" encoding="utf-8"?>
<!-- Generator: Adobe Illustrator 18.0.0, SVG Export Plug-In . SVG Version: 6.00 Build 0)  -->
<!DOCTYPE svg PUBLIC "-//W3C//DTD SVG 1.1//EN" "http://www.w3.org/Graphics/SVG/1.1/DTD/svg11.dtd">
<svg version="1.1" id="Слой_1" xmlns="http://www.w3.org/2000/svg" xmlns:xlink="http://www.w3.org/1999/xlink" x="0px" y="0px"
	 viewBox="0 0 155.5 47.4" enable-background="new 0 0 155.5 47.4" xml:space="preserve">
<g>
	<path fill-rule="evenodd" clip-rule="evenodd" fill="#FF0000" d="M50,38c0,5.5,2.7,9.3,8.3,9.5h2.4c4.5,0,7.4-3.3,7.9-3.6
		c0.1,0.4,0.7,1.1,1,1.5c2.1,2.2,5.2,2.2,8.1,2.2c1.7-0.2,3.4-0.6,4.5-1.2c1.8-1,2.4-1.9,3.2-2.4c0.1,1,0.5,2,0.5,3h7.6V18.3h-9.3
		V38c0,1.3-5.1,3.5-7,0.8c-0.6-0.8-0.8-1.9-0.8-3.2V18.3h-9.3V38c0,0.7-2.4,2.1-3.9,2.1c-2.4,0-3.9-1.2-3.9-3.6V18.3H50V38L50,38z
		 M29.5,36.8L33,46.9h2.6c-0.1-0.7-0.6-1.9-0.9-2.6c-0.3-0.9-0.6-1.6-0.9-2.6L32,36.4C31.1,36.4,30.5,36.8,29.5,36.8L29.5,36.8z
		 M0,46.9h11.4l1.9-6c0.3-1,0.6-2,0.9-2.9c0.2-0.7,0.9-2.4,0.9-3.1H4.4c-0.4,0-0.6,0.8-0.7,1.2l-1.6,4.6c-0.4,1-0.7,2-1.1,3.1
		C0.7,44.5,0.1,46.2,0,46.9L0,46.9z M34.1,35.5c0.3,1.4,3.8,10.5,3.9,11.3h11.4l-1.7-4.9c-1.2-3.6-3.1-8.5-4.5-11.9
		c-0.3-0.8-0.7-1.6-0.9-2.5H42c-0.1,0.6-1,2.1-1.3,2.6C38.6,33.2,37.2,33.8,34.1,35.5L34.1,35.5z M8.5,21.9c1.3,0,2.5,0,3.8,0
		c2.9,0,2.7-0.5,5.2-2.5l3.1-2.6l0.4-0.4l3.6-9.2h0.3c0.1,0.6,1.5,3.4,1.7,4.4c2.5-2.2,4.2-3.2,7.8-4.9l-3.5-7H18.7
		C14.9,7.4,11.8,14.1,8.5,21.9L8.5,21.9z M128.2,46.9h9.3V36.1h8.7v10.8h9.3V18.3h-9.3v10.5h-8.7V18.3h-9.3V46.9L128.2,46.9z
		 M106.5,33.3c0-2.6,0.5-8.2,3.9-8.2c0.6,0,4.4-0.2,4.4,0.6v12.1c0,1.3-4.4,2.7-6,1.8C106.9,38.6,106.5,35.2,106.5,33.3L106.5,33.3z
		 M96.8,33c0,7.2,1.7,14.4,9.8,14.4c5.9,0,5.3-0.6,9.3-3.6l0.8,3h7.4V19.7c0,0-1.7-0.8-2.4-1c-4.9-1.2-12.4-1.9-17.1,0.1
		C98.9,21.1,96.8,27.3,96.8,33L96.8,33z M29.8,29.7c-2.7,2.7-2.9,2.3-6.3,4.1c0,0.7,0.3,1.2,0.5,1.7l1.8,4.9
		c0.4,1.1,0.7,2.2,1.2,3.3l1.1,3.3h2.7l-4.1-11.8c4.6,0,9.3-1.8,11.7-5c0.8-1.1,1.4-2.3,2-3.5c1.4-2.8,3-8.2,3.5-11.8
		c0.2-1.4,0.1-0.8,2.4-1.9c0.6-0.3,1.5-0.5,1.9-1c-0.4-0.6-0.6-0.4-2.1-0.4c-0.8,0-1.6,0-2.5,0c-1.8-3.4-7.5-4.2-11-2.1
		c-1.6,1-2.9,2.1-4.4,3.3l-9.4,8c-4.5,3.6-2.5,3-10.6,3c-1.4,0-6.8-0.3-7.6,0.1c-0.4,0.5,1.6,5.7,7.3,5.7L4.5,33l10,0
		c5.9,0,10.6-0.7,14.9-4.3c1.4-1.2,2.9-3,3.9-4.5C34.7,21.9,30.9,28.6,29.8,29.7L29.8,29.7z"/>
</g>
</svg>
