<svg width="300" height="299" xmlns="http://www.w3.org/2000/svg"><g fill="none"><path d="M1.106 199.214c-.02-1.526-.069-3.075-.069-4.601 0-64.08 0-128.145-.04-192.213C.997.935 1.33.588 2.792.588c98.173.04 196.335.04 294.499 0 1.448 0 1.922.253 1.922 1.84-.04 64.892-.04 129.792-.04 194.686 0 .714-.059 1.439-.09 2.143H43.897c-14.256 0-28.517-.02-42.791-.043zM232.926 58.55c-2.53 0-5.07-.126-7.593.04-2.128.144-4.264.54-6.354.966-23.31 4.753-35.764 25.153-33.976 43.493 1.644 16.944 13.59 32.234 30.432 36.772 8.76 2.355 17.627 2.44 26.545 1.32 8.352-1.043 16.03-3.991 22.615-9.26 11.507-9.214 16.715-21.36 15.454-36.023-1.21-14.159-8.162-24.874-20.672-31.762-8.223-4.512-17.168-5.974-26.452-5.546zM19.905 99.534c0 12.829 0 25.658-.019 38.5 0 1.064.04 1.695 1.444 1.695 21.198-.045 42.404-.045 63.602-.01 1.1 0 1.394-.347 1.382-1.414-.05-5.778-.08-11.57.01-17.348.018-1.607-.303-2.112-2.044-2.103-11.185.088-22.353.02-33.536.069-1.394 0-1.821-.406-1.727-1.765.109-1.696.13-3.423 0-5.119-.113-1.403.352-1.745 1.727-1.736 9.09.06 18.182 0 27.264.069 1.524.011 2.048-.263 2.018-1.93-.118-5.677-.09-11.348-.01-17.015.02-1.474-.314-1.93-1.88-1.92-9.092.082-18.182 0-27.265.082-1.582.012-1.958-.477-1.854-1.944.109-1.64.118-3.307-.01-4.944-.122-1.465.334-1.83 1.808-1.83 11.284.075 22.582.013 33.864.075 1.32 0 1.647-.369 1.628-1.659-.06-6.113-.06-12.229 0-18.347.01-1.257-.274-1.684-1.628-1.684-21.033.045-42.073.045-63.106 0-1.415 0-1.705.427-1.696 1.77.05 12.838.028 25.667.028 38.508zM185.121 59.46c-.493-.07-.803-.16-1.112-.16-10.474 0-20.939.01-31.403-.024-1.056 0-1.425.581-1.824 1.325-6.553 12.026-13.094 24.05-19.677 36.045-.541.988-.6 1.708-.064 2.714 6.94 13 13.85 26.025 20.721 39.055.51.966 1.056 1.304 2.155 1.287 10.573-.04 21.146-.019 31.733-.028.395 0 .87.212 1.26-.272-.18-.314-.32-.659-.54-.987-8.35-13.002-16.702-26.01-25.095-38.993-.643-1.018-.695-1.708-.021-2.757a5961.216 5961.216 0 0018.453-28.755c1.784-2.761 3.55-5.535 5.414-8.45zm-84.95 40.01c0 12.88.022 25.77-.018 38.647 0 1.202.253 1.609 1.538 1.6 8.695-.064 17.4-.064 26.092 0 1.271.009 1.543-.388 1.543-1.6-.03-25.705-.04-51.427 0-77.135 0-1.45-.487-1.682-1.786-1.682-8.537.05-17.076.07-25.609-.014-1.502-.01-1.809.441-1.8 1.859.076 12.772.05 25.547.04 38.324z" fill="#CB2030"/><path d="M1.106 199.214c14.274.024 28.542.043 42.807.043h255.182c.043.496.102.99.102 1.488 0 32.11-.021 64.219.038 96.316 0 1.51-.416 1.786-1.833 1.786-98.152-.04-196.302-.04-294.452 0-1.596.01-1.96-.375-1.96-1.972.05-31.951.04-63.893.04-95.835-.002-.614.047-1.219.076-1.826zm38.74 52.694c-.213-.834-.362-1.3-.437-1.786-1.037-6.843-2.06-13.71-3.066-20.553-.123-.834-.308-1.378-1.394-1.368-6.052.059-12.116.042-18.182 0-.964 0-1.186.319-1.186 1.24.019 13.103.019 26.218 0 39.328 0 .936.262 1.231 1.205 1.212 3.253-.059 6.503-.08 9.751.019 1.325.043 1.519-.456 1.519-1.625-.054-7.162-.036-14.313-.024-21.475 0-.565-.17-1.14.296-1.876.08.378.12.577.163.773 1.542 7.6 3.103 15.177 4.599 22.776.212 1.082.61 1.45 1.705 1.41a277.67 277.67 0 019.914 0c1.11.043 1.484-.318 1.697-1.41.907-4.7 1.908-9.373 2.886-14.055.662-3.184 1.34-6.366 2.01-9.553.258 7.866.28 15.695.227 23.509 0 1.094.215 1.55 1.43 1.51 3.41-.08 6.828-.06 10.249 0 .992.018 1.31-.24 1.31-1.29-.04-13.051-.04-26.1 0-39.151 0-1.141-.365-1.361-1.414-1.35-5.457.05-10.906.1-16.351-.02-1.597-.05-2.122.439-2.417 1.953-1.398 7.16-2.922 14.282-4.49 21.782zm78.76 18.052c-.099-.418-.149-.723-.262-1.032-5.04-13.24-10.094-26.467-15.113-39.716-.329-.853-.803-1.035-1.607-1.023-5.069.028-10.138.05-15.196 0-1.032-.012-1.502.307-1.92 1.287a8369.547 8369.547 0 01-16.665 39.116c-.426.992-.47 1.408.852 1.39 4.46-.06 8.918-.041 13.377 0 .934.018 1.35-.277 1.628-1.17.718-2.362 1.573-4.682 2.3-7.044.28-.881.717-1.17 1.647-1.17 3.914.06 7.822.06 11.724.02.933-.02 1.349.269 1.632 1.171.754 2.4 1.637 4.779 2.419 7.172.213.663.456 1.022 1.23 1.022 4.621-.042 9.232-.023 13.954-.023zm89.906-20.809c0 6.428.01 12.886 0 19.314 0 .874-.08 1.535 1.23 1.535 10.576-.057 21.15-.04 31.713-.019.943 0 1.23-.267 1.212-1.212-.07-2.697-.09-5.386.01-8.093.042-1.211-.258-1.578-1.527-1.559-4.941.08-9.91.031-14.858.031-2.818 0-2.757 0-2.837-2.856-.019-1.19.23-1.609 1.519-1.59 4.354.102 8.698.024 13.042.062 1.072.019 1.429-.267 1.389-1.39-.078-2.7-.069-5.397 0-8.094.021-1.052-.258-1.39-1.37-1.368-3.858.068-7.718.019-11.566.019-3.014 0-2.957 0-3.014-3.005-.042-1.2.239-1.606 1.526-1.587 5.395.09 10.793 0 16.19.068 1.11 0 1.527-.238 1.489-1.446-.08-2.759-.08-5.508 0-8.255.028-1.132-.241-1.498-1.43-1.489-10.405.05-20.81.05-31.225-.01-1.29 0-1.526.428-1.52 1.598.067 6.45.027 12.897.027 19.346zm-72.073-3.73c1.065 3.433 2.029 6.468 2.955 9.51.184.629.477.896 1.136.905.824.01 1.646.218 2.468.18 9.232-.418 14.807-6.808 14.05-16.073-.573-7.138-5.458-11.683-12.576-11.683-6.888-.01-13.764.03-20.652-.043-1.453-.01-1.928.3-1.918 1.866.068 11.467.03 22.914.03 34.363 0 1.489.02 2.977-.01 4.465-.009.742.195 1.089 1.028 1.07 3.848-.021 7.708-.021 11.563 0 .808.019 1.085-.286 1.011-1.051-.03-.319 0-.654 0-.992 0-9.196-.009-18.39.024-27.595 0-.499-.451-1.37.586-1.41 1.547-.07 3.09-.022 4.448.87 1.93 1.272 2.237 3.313.744 5.077-1.323 1.54-2.9 1.571-4.887.541zm128.633-17.17c-6.127 0-12.231.009-18.352-.02-1.001-.014-1.466.166-1.426 1.328.099 2.707.08 5.395 0 8.095-.029 1.061.34 1.3 1.33 1.28 2.967-.058 5.952.06 8.926-.058 1.39-.05 1.706.347 1.706 1.717-.069 9.302-.019 18.619-.069 27.921 0 1.113.246 1.512 1.439 1.488 4.146-.078 8.26-.118 12.409 0 1.476.043 1.804-.415 1.795-1.823-.069-9.203 0-18.411-.069-27.605-.011-1.4.397-1.748 1.746-1.698 2.903.099 5.832-.022 8.747.05 1.103.03 1.41-.308 1.38-1.4-.069-2.579-.1-5.175.012-7.754.05-1.271-.329-1.578-1.56-1.56-6.011.07-12.011.038-18.014.038zm-61.46.146c-.139-.06-.29-.156-.439-.156-5.237-.01-10.464 0-15.692-.043-.836 0-1.131.475-1.47 1.073a2456.796 2456.796 0 01-9.66 17.835c-.475.871-.487 1.544-.022 2.44 3.078 5.711 6.222 11.385 9.026 17.22 1.193 2.471 2.54 3.43 5.32 3.274 4.64-.288 9.302-.08 14.204-.08-.397-.673-.645-1.139-.933-1.606-3.969-6.199-7.897-12.442-11.903-18.631-.655-1.011-.737-1.706-.05-2.757 3.692-5.674 7.292-11.388 10.901-17.121.3-.435.737-.822.719-1.448zm-43.45 20.646c0 6.337.043 12.666-.03 19.003-.01 1.399.21 2.025 1.854 1.954 3.91-.14 7.819-.078 11.726-.019 1.112.019 1.51-.21 1.51-1.41a6317.17 6317.17 0 010-39.014c0-1.101-.357-1.38-1.411-1.368-4.068.05-8.152.068-12.22 0-1.211-.021-1.469.385-1.46 1.498.064 6.47.031 12.914.031 19.356z" fill="#1C4587"/><g fill="#FDFDFD"><path d="M232.925 58.55c9.284-.428 18.23 1.034 26.452 5.553 12.51 6.888 19.462 17.6 20.672 31.762 1.261 14.663-3.957 26.809-15.454 36.024-6.574 5.268-14.253 8.216-22.615 9.26-8.918 1.112-17.786 1.037-26.545-1.32-16.842-4.538-28.788-19.829-30.432-36.77-1.807-18.35 10.666-38.74 33.976-43.494 2.093-.425 4.226-.822 6.354-.966 2.523-.186 5.062-.05 7.592-.05zm16.75 42.264c.024-6.829-1.244-10.649-5.017-14.577-8.034-8.39-21.224-7.677-26.761 3.808-2.998 6.224-3.088 12.697-.775 19.105 4.106 11.327 18.194 14.575 26.894 6.26 4.35-4.145 5.87-9.427 5.66-14.596zm-229.769-1.28c0-12.841.022-25.67-.028-38.497 0-1.342.283-1.779 1.696-1.77 21.033.046 42.083.046 63.106 0 1.354 0 1.647.428 1.628 1.687-.05 6.114-.06 12.232 0 18.345.01 1.28-.307 1.658-1.628 1.658-11.282-.05-22.58 0-33.864-.07-1.474 0-1.92.361-1.807 1.823.13 1.65.118 3.314.01 4.95-.105 1.464.27 1.95 1.853 1.94 9.093-.084 18.185 0 27.265-.084 1.56-.01 1.902.45 1.88 1.92-.08 5.667-.108 11.348.01 17.018.03 1.665-.487 1.939-2.018 1.93-9.092-.071-18.172-.012-27.264-.071-1.375-.01-1.84.333-1.727 1.733a38.559 38.559 0 010 5.12c-.094 1.358.343 1.764 1.727 1.764 11.183-.05 22.351.01 33.536-.069 1.741-.009 2.065.494 2.043 2.103-.09 5.78-.059 11.572-.009 17.348.01 1.068-.284 1.415-1.382 1.415-21.198-.036-42.406-.036-63.602.012-1.406 0-1.444-.622-1.444-1.696.02-12.85.02-25.682.02-38.51z"/><path d="M185.121 59.461c-1.864 2.915-3.63 5.689-5.404 8.462-6.142 9.593-12.272 19.188-18.461 28.757-.664 1.047-.624 1.734.04 2.752 8.395 12.983 16.727 25.992 25.087 38.993.21.32.347.664.538.988-.387.49-.864.271-1.259.271-10.585.01-21.16-.01-31.734.036-1.098 0-1.65-.338-2.154-1.295a8355.895 8355.895 0 00-20.721-39.054c-.536-1.006-.477-1.725.064-2.712C137.7 84.661 144.24 72.64 150.79 60.614c.402-.756.768-1.334 1.824-1.325 10.467.042 20.94.024 31.394.024.31-.012.619.078 1.112.148zm-84.94 40.009c0-12.777.026-25.554-.028-38.324 0-1.408.297-1.871 1.8-1.86 8.53.086 17.062.064 25.606.015 1.287 0 1.786.224 1.786 1.682-.04 25.71-.04 51.43 0 77.135 0 1.212-.262 1.609-1.543 1.6-8.693-.055-17.397-.055-26.093 0-1.28 0-1.547-.398-1.537-1.6.02-12.886 0-25.767.01-38.648zM39.846 251.908c1.556-7.5 3.09-14.62 4.478-21.763.298-1.526.834-2.003 2.422-1.965 5.454.12 10.906.07 16.35.02 1.045-.009 1.413.22 1.413 1.35-.04 13.05-.03 26.11 0 39.16 0 1.042-.316 1.29-1.308 1.271-3.414-.059-6.841-.08-10.252.019-1.22.024-1.443-.416-1.432-1.517.045-7.826.026-15.644-.224-23.499-.671 3.175-1.337 6.366-2.008 9.544-.978 4.68-1.98 9.354-2.887 14.043-.212 1.091-.59 1.45-1.696 1.427a210.181 210.181 0 00-9.914 0c-1.105.023-1.493-.329-1.705-1.408-1.493-7.6-3.055-15.199-4.597-22.796-.045-.196-.085-.394-.163-.772-.466.735-.298 1.33-.298 1.885-.01 7.162-.03 14.313.024 21.475 0 1.16-.194 1.658-1.52 1.618-3.247-.1-6.495-.057-9.748 0-.942 0-1.205-.286-1.205-1.23a9090.87 9090.87 0 000-39.322c0-.914.222-1.24 1.186-1.24 6.066.042 12.116.059 18.182 0 1.087-.01 1.271.538 1.394 1.37 1.018 6.853 2.038 13.72 3.066 20.56.083.47.23.936.442 1.77zm78.76 18.052c-4.71 0-9.333-.02-13.95.021-.776 0-1.019-.357-1.232-1.032-.784-2.403-1.667-4.774-2.418-7.174-.275-.903-.69-1.179-1.633-1.179-3.914.06-7.821.06-11.723 0-.933-.019-1.37.276-1.647 1.16-.727 2.353-1.583 4.691-2.3 7.042-.27.895-.695 1.18-1.628 1.18-4.46-.058-8.918-.058-13.377 0-1.333.02-1.28-.396-.853-1.41 5.575-13.013 11.152-26.045 16.665-39.103.416-.971.888-1.3 1.92-1.29 5.07.052 10.127.03 15.197 0 .803-.01 1.28.168 1.606 1.013 5.02 13.252 10.073 26.485 15.113 39.728.114.323.163.626.26 1.044zm-20.799-19.798c-1.349-3.574-2.657-6.985-4.091-10.793-1.453 3.83-2.762 7.262-4.106 10.793h8.197zm110.705-1.011c0-6.446.04-12.895-.021-19.323-.01-1.183.22-1.61 1.526-1.61 10.396.06 20.81.06 31.207.013 1.19-.014 1.467.364 1.438 1.475-.09 2.76-.09 5.518 0 8.265.04 1.2-.375 1.457-1.497 1.436-5.377-.059-10.782.021-16.182-.059-1.29-.019-1.554.387-1.535 1.59.057 3.002 0 3.002 3.014 3.002 3.87 0 7.72.05 11.573-.019 1.103-.021 1.391.307 1.37 1.377a149.18 149.18 0 000 8.096c.05 1.103-.307 1.389-1.39 1.389-4.355-.057-8.7.02-13.041-.057-1.29-.043-1.545.376-1.51 1.585.062 2.846 0 2.846 2.828 2.846 4.949 0 9.907.05 14.87-.03 1.269-.02 1.557.356 1.517 1.568-.109 2.7-.066 5.396-.01 8.096.02.933-.257 1.209-1.212 1.209-10.563-.04-21.137-.057-31.71 0-1.313.024-1.23-.652-1.23-1.526.004-6.446-.005-12.898-.005-19.323zm-72.073-3.73c1.998 1.033 3.576 1.002 4.875-.538 1.493-1.774 1.186-3.827-.744-5.077-1.37-.902-2.91-.952-4.448-.883-1.037.05-.59.923-.59 1.422-.031 9.184-.02 18.39-.02 27.574 0 .34-.018.675 0 1.004.074.76-.203 1.06-1.01 1.06a557.11 557.11 0 00-11.563 0c-.834 0-1.035-.34-1.028-1.081.03-1.477.01-2.974.01-4.453 0-11.45.04-22.916-.031-34.363-.01-1.566.465-1.885 1.92-1.876 6.879.071 13.765.033 20.653.043 7.13 0 12.012 4.554 12.588 11.693.737 9.264-4.828 15.633-14.06 16.072-.822.019-1.646-.18-2.468-.189-.66-.012-.952-.288-1.136-.905-.931-3.035-1.883-6.07-2.948-9.503zm128.633-17.171c6.003 0 12.003.031 17.996-.033 1.23-.019 1.618.3 1.566 1.55-.109 2.58-.078 5.185-.012 7.767.033 1.08-.265 1.436-1.377 1.398-2.915-.068-5.844.06-8.747-.05-1.35-.049-1.758.298-1.748 1.7.07 9.195 0 18.41.07 27.594.01 1.43-.309 1.885-1.797 1.848-4.136-.123-8.251-.102-12.397-.024-1.193.024-1.448-.357-1.448-1.479.059-9.302 0-18.619.059-27.921.019-1.368-.319-1.767-1.708-1.717-2.976.13-5.953 0-8.915.068-.994.021-1.36-.217-1.33-1.29.09-2.7.09-5.395 0-8.095-.04-1.17.428-1.335 1.436-1.327 6.12.02 12.244.011 18.352.011zm-61.459.147c.018.635-.419 1.013-.695 1.47-3.612 5.711-7.212 11.446-10.901 17.12-.683 1.05-.626 1.765.05 2.767 4.005 6.18 7.931 12.42 11.9 18.628.279.456.539.924.933 1.6-4.9 0-9.56-.22-14.204.077-2.778.158-4.127-.803-5.317-3.274-2.797-5.832-5.953-11.516-9.026-17.22-.466-.893-.456-1.567.019-2.438a2607.134 2607.134 0 009.663-17.837c.329-.605.638-1.073 1.467-1.073 5.23.043 10.458.033 15.695.043.125-.02.276.078.416.137zm-43.451 20.646c0-6.442.033-12.886-.019-19.337-.012-1.099.239-1.517 1.448-1.498 4.078.07 8.152.05 12.232 0 1.06-.01 1.398.248 1.398 1.37-.04 13.004-.04 25.998 0 39.014.022 1.202-.397 1.43-1.5 1.408-3.916-.057-7.826-.118-11.712.024-1.648.066-1.878-.555-1.866-1.956.062-6.36.02-12.69.02-19.025z"/></g><path d="M249.676 100.814c.22 5.169-1.31 10.448-5.66 14.599-8.7 8.315-22.786 5.076-26.894-6.26-2.313-6.397-2.22-12.881.775-19.106 5.537-11.485 18.727-12.2 26.761-3.808 3.773 3.926 5.041 7.746 5.018 14.575z" fill="#CB2030"/><path d="M97.807 250.162h-8.2c1.345-3.531 2.656-6.964 4.106-10.793 1.444 3.808 2.743 7.24 4.094 10.793z" fill="#1C4587"/></g></svg>