<svg xmlns="http://www.w3.org/2000/svg" width="866" height="191" viewBox="0 0 866 191" fill="#35b54c"><path d="M665.49 109.22c0 6.33-.52 20.28-5.25 29.77-6 12.12-16.93 15.28-26.08 15.28s-20.09-3.16-26.06-15.27c-4.72-9.49-5.25-23.44-5.25-29.77V3.09h-48.52V117.4c0 13.95 1.85 33.71 16.45 50 18.78 21.06 47.21 23.18 63.38 23.18s44.63-2.12 63.4-23.18c14.64-16.33 16.44-36.09 16.44-50V3.09h-48.51zM454.11 148h-.55L413.61 3.15h-51.09l60.37 184.36h59.31L543.63 3.15h-49.29L454.11 148zM276.88 0c-15.4 0-45.39 2.11-67.3 24.49-21.38 21.86-24 52.68-24 70.84s2.64 49 24 70.84c21.91 22.39 51.9 24.51 67.3 24.51s45.4-2.12 67.31-24.51c21.38-21.85 23.95-52.66 23.95-70.84s-2.57-49-23.95-70.84C322.28 2.11 292.27 0 276.88 0zm30 139.32c-5.74 8.16-15.39 15-30 15s-24.28-6.84-30-15c-9.91-13.44-11.22-32.14-11.22-44s1.31-30.55 11.22-44c5.73-8.16 15.39-15 30-15s24.25 6.86 30 15c9.9 13.42 11.22 32.12 11.22 44s-1.33 30.56-11.23 44zM849.58 91.13c-9.65-7.91-27.12-13.71-36.26-16.07l-2.86-.81c-15.14-4.19-24-7.62-27.92-12.63-1.57-1.83-2.63-5.14-2.63-8.57 0-4.52 2.17-10 9.42-13.29 7.51-3.44 16-3.69 22.27-3.42 10.66.49 30.23 5.65 39.69 16.22 0 0 6.65-13.68 3.52-25.21-3.61-13.25-13.54-20.53-23.59-23.84C823.19.87 811.37 0 805 0c-17 0-31.84 2.63-45.9 9.74-20.64 10.53-29.21 27.16-29.21 47.4a59.89 59.89 0 0 0 4.42 22.4c6.78 14.77 22.19 24 36.51 28.43l7.58 2.39c13.3 4.19 23.48 6.57 30.51 12.1 4.44 3.42 7 7.37 7 13.7a15.21 15.21 0 0 1-6.38 12.64c-5.45 4.24-16.08 5.52-23.63 5.52-12.5 0-33.41-4.88-50.07-23.27 0 0-5.3 15.68-2.5 27.92s13.41 20.05 22.74 24.42c10.15 4.82 24 7.29 34.19 7.29 18 0 38.7-2.9 54.86-15 10.42-7.89 20.86-21.85 20.86-45.83.02-13.17-3.1-27.92-16.4-38.72zM124.26 127.81h-.54S94.76 69 81.81 42.68 42.42 2.38 18.67 2.38H0v184.84h44.72L43.16 61h.53s34.31 68.11 43.9 86.89c14 27.3 33.28 39.33 59.17 39.33h21.17V2.38h-44.46z"/></svg>