<svg width="658" height="214" xmlns="http://www.w3.org/2000/svg"><g fill="none"><path d="M46.921 50.022c1.606-9.875 3.148-19.237 4.663-28.608.88-5.433 1.945-10.848 2.487-16.31.33-3.34 1.716-4.139 4.855-4.074 9.233.192 18.485.257 27.727-.019 3.855-.12 5.039.936 4.975 4.865-.23 13.767-.092 27.534-.092 41.292 0 43.265-.064 86.53.1 129.787.02 4.57-1.036 5.966-5.809 5.93-26.543-.249-53.095-.23-79.638-.01-4.415.037-5.525-1.065-5.507-5.489C.838 120.354.82 63.33.7 6.307.691 2.415 1.315.818 5.693.993c9.224.376 18.485.22 27.727.046 2.983-.055 3.993.9 4.424 3.864 2.01 13.804 4.277 27.562 6.498 41.338.184 1.074-.12 2.423 2.58 3.781zm15.337 53.004c.394.027.79.064 1.184.1.082 1.065.238 2.12.238 3.185.019 22.028.11 44.055-.064 66.092-.027 3.983.854 5.718 5.15 5.332 3.9-.358 7.883-.367 11.784-.009 4.561.422 6.011-1.028 5.956-5.782-.238-24.194-.11-48.387-.11-72.58 0-29.306-.073-58.62.083-87.926.018-4.066-1.056-5.6-5.25-5.315-4.892.34-9.885.542-14.73-.036-6.086-.725-7.967 1.78-8.775 7.498-3.01 21.21-6.49 42.348-9.903 63.485-.239 1.45.514 4.231-2.139 4.01-1.863-.155-1.064-2.615-1.597-3.992-.275-.716-.248-1.542-.367-2.322-3.34-21.164-6.746-42.31-9.958-63.484-.57-3.773-1.882-5.452-5.966-5.168-5.286.367-10.646.413-15.915-.009C6.932 5.71 5.657 7.39 5.675 12.3c.183 49.37.083 98.747.147 148.116.009 5.461-2.359 12.703.927 15.942 3.809 3.754 11.188.726 16.98 1.331 3.551.367 4.836-.789 4.69-4.524-.285-7.26-.083-14.548-.083-21.826V99.354c1.248 1.992 1.716 4.048 1.991 6.131 2.928 22.22 5.966 44.422 8.61 66.67.605 5.158 3.092 5.59 7.37 5.654 4.405.064 6.158-1.138 6.69-5.727 1.78-15.622 4.02-31.188 6.131-46.781.982-7.434 2.074-14.85 3.13-22.275zM309.8 52.188c1.725-10.729 3.442-21.467 5.158-32.206.808-5.048 1.817-10.077 2.322-15.144.312-3.12 1.68-3.827 4.552-3.79 9.04.147 18.109.349 27.14-.064 4.782-.22 5.8 1.33 5.782 5.874-.174 45.046-.11 90.083-.11 135.129 0 11.793-.129 23.596.083 35.4.073 3.836-.57 5.515-5.04 5.479-26.946-.211-53.893-.184-80.84-.028-3.79.019-4.983-.936-4.974-4.864.128-57.437.12-114.873.009-172.3 0-3.497.707-4.782 4.497-4.663 9.233.294 18.494.276 27.727 0 3.626-.1 4.507 1.166 4.993 4.58 2.249 15.53 4.855 31.004 7.333 46.505.46.028.918.056 1.368.092zm-18.265 47.277c.22-.037.45-.065.68-.101.44 2.055 1.018 4.093 1.294 6.167 2.946 22.01 5.975 44 8.636 66.046.56 4.607 1.937 6.167 6.783 6.287 5.149.119 6.746-1.551 7.269-6.434 1.34-12.5 3.176-24.955 4.883-37.41 1.578-11.61 3.249-23.202 4.882-34.803.303.036.615.073.918.1v6.471c0 22.22.101 44.44-.092 66.66-.036 4.15 1.194 5.58 5.315 5.269 4.102-.312 8.278-.358 12.38.009 4.296.376 5.177-1.358 5.159-5.342-.165-25.166-.083-50.341-.083-75.517 0-28.314-.11-56.629.11-84.943.037-4.672-1.294-6.186-5.92-5.819-4.882.395-9.875.532-14.721-.027-5.617-.643-7.297 1.597-8.05 6.874-2.991 21.009-6.369 41.953-9.783 62.897-.404 2.506.202 5.636-2.928 7.6-3.745-23.817-7.572-47.387-11.06-71.002-.706-4.763-2.175-6.883-7.351-6.351-5.057.523-10.252.477-15.318.01-4.92-.45-5.672 1.587-5.654 5.937.138 48.57.083 97.141.092 145.712 0 5.506.092 11.013-.037 16.52-.064 2.487.743 3.515 3.332 3.423 4.323-.156 8.691-.422 12.968.065 5.388.605 6.48-1.487 6.425-6.553-.285-23.928-.129-47.827-.129-71.745zm-72.442-9.702c-4.846 0-9.692-.174-14.529.065-3.176.156-4.002-1.01-3.928-4.048.192-7.856-.248-15.75.192-23.588.257-4.635-1.753-5.048-5.442-4.827-3.378.192-6.131-.542-6.094 4.873.275 37.75 0 75.508.293 113.258.046 5.874-1.22 8.003-7.351 7.416-6.232-.597-12.574-.267-18.861-.083-3.047.092-4.516-.385-4.507-4.03.12-47.578.11-95.157.019-142.746-.01-3.166 1.028-3.965 4.047-3.919 11.005.156 22.018.184 33.032-.01 3.451-.063 5.222.653 4.718 4.498-.184 1.432-.707 3.396 1.018 4.259 1.955.982 2.616-1.12 3.662-2.111 10.711-10.133 35.923-11.087 47.35-1.735 4.378 3.58 6.452 8.279 6.452 13.923 0 42.467-.046 84.934.083 127.401.01 3.864-1.487 4.406-4.846 4.48-11.739.265-23.46-.579-35.235.706-12.014 1.303-18.41-5.296-18.448-17.365-.046-14.942.34-29.893-.11-44.826-.431-14.529 4.286-25.423 19.293-30.278-.276-.422-.533-.872-.808-1.313zm34.858 22.12c0-20.064-.1-40.136.055-60.2.055-6.36-2.79-10.564-8.352-12.931-10.692-4.562-21.486-4.25-32.068.34-5.103 2.211-7.875 6.451-7.92 12.114-.083 9.84.045 19.678-.092 29.508-.037 2.955.743 4.332 3.964 4.167 4.314-.22 8.665-.24 12.978.009 3.213.183 4.011-1.065 3.947-4.075-.175-7.866-.046-15.74-.064-23.606 0-2.662-.01-5.526 3.57-5.608 3.58-.083 3.772 2.698 3.763 5.415-.018 6.489-.78 13.097.165 19.448 1.643 10.968-1.982 17.53-13.134 19.559-1.303.238-2.496 1.12-3.735 1.725-6.755 3.295-10.482 8.554-10.904 16.209-1.019 18.08-.431 36.18-.34 54.27.037 6.443 3.534 9.48 9.977 10.197 3.965.43 7.82-.156 11.629-1.331 1.67-.514 3.864-1.496 5.094-.872 5.47 2.827 11.188.66 16.704 1.44 4.047.579 4.864-1.33 4.837-5.001-.147-20.247-.074-40.512-.074-60.778zm-90.055-5.195v56.6c0 14.42 0 14.2 14.253 14.493 4.874.101 6.223-1.129 6.196-6.113-.22-37.933-.065-75.856-.211-113.78-.019-4.195.752-6.535 5.405-5.663 5.516 1.037 6.948-1.652 6.205-6.544-.184-1.147-.165-2.377 0-3.534.541-3.845-.964-5.14-4.892-4.974-7.26.303-14.547.321-21.807 0-4.158-.184-5.268 1.147-5.232 5.259.184 21.412.083 42.834.083 64.256zm321.324.449c0-22.807.212-45.624-.155-68.422-.101-5.69 1.734-6.746 6.91-6.645 15.732.321 31.472.367 47.194-.018 5.654-.138 6.893 1.23 5.608 6.745-4.03 17.411-7.26 35.006-11.5 52.361-2 8.187.496 15.585 1.918 23.193a3123.4 3123.4 0 0012.602 63.568c.853 4.084-.01 4.965-4.02 4.928-17.696-.192-35.391-.23-53.086.028-4.397.064-5.626-1.074-5.58-5.544.229-23.395.11-46.799.11-70.194zm25.7 18.136l1.009-.082c1.973 12.142 4.001 24.285 5.901 36.437 2.524 16.199 2.488 15.96 18.88 16.162 5.305.065 5.662-1.89 4.781-6.167-4.176-20.412-8.27-40.834-12.197-61.292-1.065-5.534-2.919-10.986-1.588-16.86 3.093-13.602 5.993-27.25 8.82-40.916.982-4.781 4.58-10.93 2.157-14.042-2.763-3.534-9.582-.532-14.529-1.34-5.406-.881-6.572 1.909-7.214 6.425-1.441 10.095-3.322 20.118-5.03 30.177l-.99-.138V51.83c0-14.675-.01-14.4-14.667-14.721-5.305-.12-5.948 1.854-5.93 6.424.166 39.934.092 79.868.092 119.811 0 14.391.01 14.18 14.382 14.428 4.892.092 6.333-1.24 6.232-6.195-.32-15.429-.11-30.866-.11-46.304zM95.987 107.321c0-18.08-.027-36.153.01-54.243.027-11.509 4.405-17.383 15.492-20.558 9.683-2.772 19.42-2.855 29.003.413 9.545 3.249 13.822 9.444 13.84 19.521.028 19.458-.165 38.906.138 58.355.073 4.836-1.432 6.066-5.984 5.791-6.067-.358-12.18-.073-18.264-.092-2.066 0-3.864-.046-3.782 2.974.092 3.001 1.937 2.891 3.983 2.882 6.682-.01 13.373.147 20.045-.064 3.148-.092 3.984 1 3.938 4.056-.156 12.776.036 25.543-.11 38.319-.092 7.911-4.764 13.895-13.327 16.796-10.766 3.653-21.688 3.524-32.362-.34-9.05-3.276-12.583-8.692-12.61-18.411-.037-18.457-.01-36.924-.01-55.399zm5.112-.23c0 18.687.11 37.364-.064 56.051-.055 5.837 2.276 9.977 7.425 12.244 10.748 4.726 21.725 5.084 32.592.385 5.543-2.395 8.526-6.617 8.343-12.95-.193-6.682-.037-13.373-.037-20.063 0-16.025 0-15.888-16.135-15.576-3.782.083-4.608 1.377-4.525 4.828.202 8.646.064 17.31.055 25.956 0 2.652-.138 5.653-3.58 5.662-3.368 0-3.698-2.9-3.698-5.607 0-14.162.11-28.324-.074-42.476-.046-3.58 1.46-4.314 4.562-4.232 6.094.147 12.207-.21 18.283.129 4.286.239 5.231-1.404 5.185-5.397-.193-17.897-.183-35.785-.036-53.692.055-7.048-3.277-11.536-9.5-14.115-8.508-3.534-17.328-3.415-26.047-1.157-9.72 2.506-12.749 6.82-12.758 16.897 0 17.723.01 35.418.01 53.114zm276.307-17.328c-4.443 0-8.912-.21-13.336.065-3.662.229-5.186-.615-5.085-4.755.303-11.004.046-22.027.129-33.05.073-9.582 4.203-15.676 13.234-18.77 10.326-3.542 20.862-3.808 31.28-.284 9.609 3.25 13.904 9.38 13.904 19.513.028 41.705-.046 83.42.11 125.125.01 4.148-1.138 5.222-5.25 5.268-11.555.138-23.092-.606-34.665.688-12.033 1.34-18.54-5.176-18.604-17.209-.083-14.17.321-28.342-.11-42.494-.468-14.979 2.551-27.58 19.265-32.71a43.76 43.76 0 01-.872-1.387zm35.014 22.46h-.037c0-20.046-.1-40.09.055-60.127.046-6.819-3.047-11.27-9.104-13.675-10.344-4.103-20.78-3.864-30.958.487-5.296 2.257-8.27 6.35-8.113 12.463.165 6.095.027 12.189.027 18.274 0 15.612 0 15.493 15.759 15.281 3.589-.055 4.81-.963 4.672-4.644-.267-7.26-.11-14.538-.056-21.807.019-2.873-.633-6.69 3.58-6.792 4.773-.11 3.836 4.048 3.891 7.03.11 5.499-.651 11.106.175 16.485 1.762 11.39-1.652 18.796-13.62 21.063-1.313.248-2.488 1.138-3.718 1.735-6.846 3.35-10.398 8.884-10.453 16.438-.138 18.08-.22 36.152-.12 54.233.037 5.865 3.102 8.83 9.013 9.674 4.158.587 8.205.018 12.207-1.184 1.68-.505 3.873-1.579 5.085-.955 5.46 2.864 11.197.744 16.722 1.524 4.378.606 5.121-1.46 5.085-5.378-.184-20.045-.092-40.081-.092-60.126zm136.111-5.251c0-18.3-.028-36.593.01-54.885.017-9.738 3.909-15.713 12.986-18.833 10.316-3.552 20.871-3.846 31.288-.33 9.72 3.276 14.134 9.728 14.107 19.998-.064 19.476-.266 38.952-.138 58.419.028 4.093-1.055 5.498-5.231 5.259-6.076-.34-12.189-.092-18.292-.083-2.102 0-4.396-.578-4.286 3.002.11 3.597 2.505 2.836 4.534 2.845 6.489.046 12.987.12 19.476-.028 2.707-.064 3.8.661 3.763 3.607-.147 13.382.183 26.764-.184 40.136-.23 8.444-6.177 12.941-13.39 15.465-10.546 3.671-21.33 3.414-31.849-.239-9.224-3.212-12.803-8.801-12.812-18.842 0-18.512.018-37.006.018-55.49zm53.224-27.81c0-9.04-.129-18.09.046-27.13.119-6.535-2.947-10.913-8.683-13.372-10.261-4.397-20.669-4.112-30.948-.028-5.911 2.34-8.747 6.728-8.729 13.272.101 37.143.092 74.296-.009 111.45-.01 5.57 2.203 9.636 7.095 11.848 11.105 5.039 22.44 5.388 33.619.257 5.277-2.423 7.893-6.69 7.673-12.757-.248-6.682 0-13.364-.083-20.055-.046-4.873 1.588-11.353-.9-14.207-2.9-3.36-9.6-.597-14.592-1.203-4.415-.532-5.186 1.551-5.076 5.415.23 8.444.092 16.906.055 25.36-.009 2.634-.192 5.662-3.634 5.644-3.304-.028-3.754-2.928-3.754-5.626-.018-14.153.092-28.305-.083-42.458-.036-3.515 1.386-4.341 4.543-4.259 6.287.166 12.584-.137 18.87.12 3.543.147 4.782-.817 4.681-4.562-.266-9.233-.082-18.475-.091-27.708zM453.07 182.168c0 9.17-.156 18.182.073 27.204.083 3.35-.872 4.396-4.258 4.286-7.27-.238-14.557-.293-21.817.019-3.919.174-4.864-1.093-4.846-4.91.156-29.885.092-59.778.092-89.68 0-27.14.1-54.279-.11-81.41-.037-4.396 1.046-5.625 5.525-5.625 11.16.009 22.312.45 33.5-.588 12.234-1.129 19.182 5.92 19.2 18.264.065 37.172.037 74.334.028 111.505-.01 16.658-7.801 23.413-24.542 21.293-.771-.092-1.542-.193-2.845-.358zm-25.846-59.501v70.203c0 16.41 0 16.263 16.356 15.942 3.873-.082 4.589-1.533 4.488-4.892-.193-6.69-.055-13.372-.055-20.063 0-8.058 0-8.058 8.122-6.489 12.749 2.478 19.384-2.836 19.393-15.566.019-27.534.01-55.068.01-82.603 0-10.224.137-20.458-.065-30.673-.146-7.847-4.387-11.876-12.124-12.188-3.396-.138-6.645.486-9.83 1.578-1.468.505-3.551 1.542-4.46.955-5.167-3.323-10.766-.771-16.053-1.634-4.625-.743-5.929 1.092-5.892 5.764.22 26.561.11 53.114.11 79.666zm190.179-2.478c0-19.082-.128-38.154.101-57.235.055-4.194-.697-6.36-5.36-5.553-3.405.579-5.039-.651-4.8-4.46.33-5.69.34-11.409.211-17.099-.064-2.882.991-3.708 3.754-3.69 14.162.101 28.324.138 42.485-.018 3.304-.037 3.929 1.285 3.828 4.176-.175 5.498-.248 11.023.027 16.512.184 3.551-.826 5.332-4.543 4.598-4.718-.927-5.296 1.367-5.277 5.488.156 37.96-.01 75.921.202 113.882.027 4.91-1.23 6.47-6.15 6.094-5.865-.459-11.812-.431-17.686-.018-5.167.367-7.076-.89-6.948-6.608.422-18.687.156-37.383.156-56.07zm4.947-5.13v48.358c0 14.337.01 14.052 14.392 14.42 5.424.137 6.406-1.635 6.378-6.646-.21-37.74-.064-75.49-.192-113.23-.019-4.075.578-6.59 5.341-5.764 4.507.78 4.69-2.037 4.46-5.286-.11-1.56-.183-3.167.02-4.718.467-3.754-.836-5.176-4.82-5.038-8.443.284-16.905.082-25.358.082-10.206 0-10.05 0-10.069 10.307-.009 3.479.734 5.305 4.497 4.644 4.663-.817 5.48 1.469 5.434 5.654-.184 19.081-.083 38.153-.083 57.216z" fill="#16150B"/><path d="M62.258 103.026c-1.056 7.425-2.148 14.84-3.148 22.275-2.102 15.584-4.35 31.16-6.131 46.78-.533 4.59-2.276 5.792-6.691 5.728-4.277-.065-6.755-.505-7.37-5.654-2.634-22.248-5.681-44.45-8.61-66.67-.274-2.083-.743-4.139-1.99-6.13v51.984c0 7.278-.203 14.566.082 21.826.147 3.735-1.138 4.891-4.69 4.524-5.792-.596-13.17 2.433-16.98-1.33-3.285-3.25-.917-10.491-.927-15.943-.045-49.369.046-98.747-.137-148.116-.019-4.91 1.257-6.59 6.204-6.195 5.278.422 10.638.376 15.915.01 4.093-.285 5.397 1.403 5.966 5.167 3.212 21.183 6.617 42.329 9.958 63.484.12.771.092 1.606.367 2.322.532 1.377-.266 3.837 1.597 3.993 2.652.22 1.91-2.56 2.139-4.011 3.423-21.146 6.892-42.283 9.903-63.485.807-5.727 2.689-8.223 8.774-7.498 4.846.578 9.839.385 14.73.036 4.204-.293 5.278 1.249 5.25 5.315-.155 29.305-.082 58.62-.082 87.926 0 24.193-.129 48.386.11 72.58.046 4.754-1.404 6.204-5.956 5.782a64.799 64.799 0 00-11.785.01c-4.286.385-5.177-1.35-5.149-5.333.174-22.028.083-44.064.064-66.092 0-1.064-.156-2.12-.238-3.184-.386-.037-.78-.065-1.175-.101zm229.277-3.561c0 23.908-.156 47.817.12 71.726.055 5.067-1.037 7.16-6.425 6.553-4.268-.486-8.646-.21-12.968-.064-2.589.092-3.396-.936-3.332-3.423.128-5.507.037-11.014.037-16.52 0-48.571.045-97.142-.092-145.712-.01-4.35.743-6.388 5.653-5.938 5.067.468 10.262.514 15.319-.01 5.167-.532 6.645 1.588 7.351 6.352 3.488 23.615 7.315 47.184 11.06 71.001 3.139-1.955 2.524-5.093 2.928-7.599 3.414-20.944 6.8-41.889 9.784-62.897.761-5.26 2.441-7.499 8.049-6.847 4.846.569 9.839.422 14.721.027 4.626-.376 5.948 1.148 5.92 5.82-.21 28.314-.11 56.628-.11 84.942 0 25.167-.082 50.342.083 75.518.027 3.983-.863 5.718-5.158 5.341-4.094-.367-8.27-.321-12.382-.009-4.12.312-5.35-1.12-5.314-5.268.193-22.22.092-44.44.092-66.66v-6.471a31.152 31.152 0 01-.918-.101c-1.633 11.601-3.295 23.193-4.882 34.803-1.708 12.455-3.543 24.91-4.883 37.41-.523 4.883-2.13 6.553-7.27 6.434-4.845-.12-6.231-1.68-6.782-6.287-2.661-22.037-5.69-44.037-8.636-66.046-.276-2.083-.854-4.111-1.295-6.167-.22.027-.45.064-.67.092zm-37.584 12.417c0 20.266-.073 40.53.074 60.787.027 3.671-.79 5.571-4.837 5.002-5.516-.78-11.234 1.377-16.704-1.441-1.23-.624-3.433.358-5.094.872-3.809 1.175-7.655 1.753-11.629 1.33-6.452-.715-9.94-3.753-9.976-10.196-.092-18.09-.68-36.18.34-54.27.43-7.645 4.148-12.904 10.903-16.209 1.23-.605 2.432-1.486 3.735-1.725 11.142-2.028 14.768-8.59 13.134-19.559-.945-6.35-.193-12.959-.165-19.448.01-2.717-.184-5.498-3.763-5.415-3.58.083-3.57 2.946-3.57 5.608.009 7.865-.11 15.74.064 23.606.064 3.01-.734 4.25-3.947 4.075-4.313-.248-8.655-.23-12.978-.01-3.221.166-4.001-1.202-3.964-4.166.137-9.83 0-19.669.091-29.508.046-5.663 2.827-9.912 7.921-12.115 10.573-4.589 21.376-4.9 32.068-.34 5.553 2.369 8.407 6.572 8.352 12.933-.165 20.054-.055 40.126-.055 60.19zm-20.228 24.79c0-6.883-.01-13.767 0-20.65 0-2.717-.193-5.406-3.846-5.305-3.249.1-3.47 2.597-3.47 5.085 0 13.96.01 27.928-.008 41.88 0 2.596.56 5.029 3.588 5.075 3.515.055 3.754-2.726 3.745-5.452-.028-6.875-.01-13.758-.01-20.633zm-69.827-29.984c0-21.422.1-42.844-.092-64.265-.037-4.112 1.074-5.443 5.232-5.26 7.26.322 14.547.304 21.807 0 3.928-.165 5.433 1.13 4.892 4.975-.166 1.157-.184 2.377 0 3.534.743 4.892-.689 7.58-6.205 6.544-4.653-.881-5.424 1.468-5.406 5.663.147 37.923-.009 75.856.211 113.78.028 4.984-1.321 6.214-6.195 6.113-14.244-.294-14.253-.074-14.253-14.492.009-18.861.009-37.731.009-56.592zm347.024 18.585c0 15.438-.203 30.875.118 46.304.11 4.956-1.34 6.287-6.231 6.195-14.373-.248-14.382-.037-14.382-14.428 0-39.943.073-79.877-.092-119.81-.028-4.571.615-6.536 5.929-6.425 14.657.32 14.666.046 14.666 14.721v21.807l.992.138c1.707-10.06 3.588-20.082 5.03-30.177.642-4.516 1.807-7.306 7.213-6.425 4.947.808 11.766-2.203 14.53 1.34 2.422 3.111-1.176 9.26-2.158 14.042-2.827 13.667-5.727 27.314-8.82 40.916-1.34 5.874.523 11.335 1.588 16.86 3.928 20.458 8.022 40.88 12.198 61.292.88 4.277.523 6.232-4.782 6.167-16.392-.192-16.346.037-18.88-16.162-1.9-12.152-3.928-24.286-5.901-36.437-.349.027-.68.055-1.019.082zM101.1 107.092c0-17.696-.01-35.4 0-53.105.009-10.077 3.037-14.391 12.757-16.897 8.72-2.258 17.54-2.377 26.047 1.157 6.214 2.579 9.555 7.067 9.5 14.116-.147 17.897-.156 35.794.036 53.691.046 3.993-.899 5.636-5.185 5.397-6.076-.349-12.189.01-18.283-.128-3.102-.074-4.607.66-4.561 4.23.183 14.153.073 28.315.073 42.477 0 2.707.33 5.608 3.699 5.608 3.442-.01 3.58-3.01 3.58-5.663.008-8.646.146-17.31-.056-25.956-.082-3.45.753-4.754 4.525-4.827 16.144-.313 16.135-.45 16.135 15.575 0 6.69-.156 13.381.037 20.063.183 6.333-2.809 10.555-8.343 12.95-10.876 4.7-21.844 4.342-32.592-.385-5.148-2.267-7.47-6.407-7.425-12.244.166-18.686.055-37.364.055-56.06zm27.653-32.298V56.52c0-2.358-.55-4.552-3.286-4.726-3.093-.193-3.965 2.037-3.965 4.671-.018 11.987.028 23.973-.046 35.95-.009 2.672.799 3.966 3.672 3.993 2.9.028 3.717-1.266 3.662-3.946-.11-5.874-.037-11.776-.037-17.668zm283.667 37.428c0 20.045-.092 40.08.083 60.126.036 3.919-.707 5.984-5.085 5.378-5.534-.78-11.27 1.34-16.723-1.524-1.211-.624-3.405.45-5.084.955-4.011 1.202-8.05 1.771-12.207 1.184-5.92-.844-8.985-3.809-9.013-9.674-.11-18.08-.018-36.152.12-54.233.054-7.554 3.606-13.088 10.453-16.438 1.23-.597 2.414-1.487 3.717-1.735 11.978-2.267 15.392-9.673 13.62-21.063-.825-5.37-.064-10.986-.174-16.484-.055-2.983.881-7.14-3.891-7.03-4.213.1-3.561 3.918-3.58 6.791-.055 7.27-.21 14.547.055 21.807.147 3.672-1.083 4.59-4.671 4.644-15.759.212-15.759.33-15.759-15.281 0-6.094.138-12.189-.028-18.274-.165-6.112 2.818-10.206 8.114-12.463 10.178-4.35 20.614-4.59 30.958-.487 6.057 2.405 9.15 6.856 9.104 13.675-.156 20.045-.055 40.09-.055 60.126h.046zm-20.274 24.588c0-7.076.027-14.162-.01-21.229-.018-2.533-.569-4.92-3.772-4.855-3.148.064-3.699 2.423-3.708 4.965-.018 13.96 0 27.92-.009 41.88 0 2.57.633 5.03 3.561 5.186 3.497.192 3.938-2.58 3.947-5.305.018-6.884 0-13.767-.01-20.642zm209.609-57.647c.009 9.233-.184 18.475.1 27.708.11 3.745-1.137 4.709-4.68 4.562-6.287-.257-12.583.046-18.87-.12-3.158-.082-4.58.744-4.543 4.26.174 14.152.064 28.304.082 42.457 0 2.698.45 5.598 3.754 5.626 3.433.018 3.625-3.01 3.634-5.644.037-8.454.184-16.916-.055-25.36-.119-3.864.652-5.938 5.076-5.415 4.993.597 11.684-2.156 14.593 1.203 2.487 2.854.854 9.334.9 14.207.082 6.691-.175 13.373.082 20.055.22 6.057-2.395 10.334-7.673 12.757-11.179 5.13-22.514 4.782-33.62-.257-4.891-2.212-7.103-6.278-7.094-11.849.101-37.153.11-74.296.01-111.45-.019-6.543 2.826-10.921 8.728-13.27 10.28-4.076 20.687-4.36 30.948.027 5.737 2.46 8.802 6.837 8.683 13.372-.184 9.04-.055 18.09-.055 27.13zm-20.504-4.378c0-5.672.027-11.344-.019-17.017-.018-2.762.166-6.048-3.79-5.956-3.414.073-3.598 3.001-3.598 5.654-.018 11.546.046 23.082-.046 34.62-.027 2.845.698 4.34 3.92 4.359 3.579.018 3.56-2.148 3.542-4.644-.037-5.672-.01-11.344-.01-17.016zm-154.027 47.882c0-26.552.12-53.105-.11-79.657-.046-4.68 1.267-6.507 5.892-5.764 5.287.854 10.895-1.698 16.053 1.634.918.587 2.992-.45 4.46-.955 3.194-1.092 6.434-1.716 9.83-1.578 7.746.303 11.987 4.341 12.124 12.188.193 10.225.065 20.45.065 30.673 0 27.535.009 55.069-.01 82.603-.009 12.74-6.654 18.044-19.393 15.566-8.122-1.57-8.122-1.57-8.122 6.49 0 6.69-.138 13.372.055 20.062.1 3.36-.615 4.81-4.488 4.892-16.356.322-16.356.468-16.356-15.942v-70.212zm20.789-15.915v33.638c0 5.901-.01 11.803.018 17.704.018 2.322.587 4.598 3.322 4.736 3.066.156 3.855-2.157 3.947-4.763.037-.982.01-1.974.01-2.947 0-31.866.008-63.732-.01-95.598 0-1.57.073-3.176-.239-4.69-.394-1.882-1.624-3.222-3.726-3.066-1.799.138-2.8 1.413-3.056 3.093-.23 1.542-.248 3.13-.248 4.7-.028 15.721-.018 31.462-.018 47.193zm174.337 8.306c0-19.063-.11-38.135.092-57.198.046-4.185-.77-6.47-5.433-5.653-3.763.66-4.507-1.157-4.498-4.645.019-10.307-.146-10.307 10.069-10.307 8.453 0 16.915.202 25.359-.082 3.992-.138 5.286 1.285 4.818 5.039-.192 1.55-.128 3.148-.018 4.717.22 3.25.046 6.067-4.46 5.287-4.764-.826-5.36 1.689-5.342 5.764.137 37.74-.019 75.49.192 113.23.028 5.01-.954 6.773-6.378 6.645-14.382-.368-14.392-.092-14.392-14.42-.009-16.134-.009-32.251-.009-48.377z" fill="#F9EE23"/><path d="M233.723 136.672c0 6.875-.019 13.758 0 20.642.009 2.726-.22 5.507-3.745 5.452-3.029-.046-3.598-2.478-3.589-5.076.019-13.96.01-27.92.01-41.88 0-2.487.21-4.983 3.469-5.084 3.653-.11 3.855 2.588 3.846 5.305 0 6.874.009 13.758.009 20.641zm-104.97-61.878c0 5.892-.073 11.794.037 17.686.055 2.68-.762 3.974-3.662 3.947-2.873-.028-3.69-1.322-3.672-3.993.083-11.986.028-23.973.046-35.95 0-2.635.872-4.865 3.965-4.672 2.735.174 3.295 2.359 3.286 4.727v18.255zm263.402 62.016c0 6.875.018 13.758-.01 20.632-.009 2.726-.45 5.507-3.946 5.305-2.919-.165-3.561-2.615-3.561-5.185.01-13.96-.01-27.91.01-41.88.008-2.542.568-4.9 3.707-4.965 3.212-.064 3.754 2.322 3.772 4.855.046 7.076.019 14.153.028 21.238zM581.25 74.785c0 5.672-.027 11.344.01 17.016.018 2.496.037 4.662-3.543 4.644-3.221-.018-3.946-1.524-3.919-4.36.092-11.537.028-23.083.046-34.62 0-2.652.184-5.57 3.598-5.653 3.956-.092 3.772 3.194 3.79 5.956.046 5.673.019 11.345.019 17.017zm-133.237 31.967c0-15.731-.01-31.472.009-47.203 0-1.57.018-3.157.248-4.7.257-1.688 1.257-2.964 3.056-3.092 2.102-.156 3.332 1.193 3.726 3.065.312 1.515.239 3.12.239 4.69.018 31.867.009 63.733.009 95.6 0 .972.028 1.963-.01 2.945-.091 2.598-.88 4.91-3.946 4.764-2.735-.138-3.304-2.414-3.322-4.736-.028-5.902-.019-11.803-.019-17.705.01-11.206.01-22.412.01-33.628z" fill="#16150B"/></g></svg>