<?xml version="1.0" encoding="utf-8"?>
<!-- Generator: Adobe Illustrator 18.0.0, SVG Export Plug-In . SVG Version: 6.00 Build 0)  -->
<!DOCTYPE svg PUBLIC "-//W3C//DTD SVG 1.1//EN" "http://www.w3.org/Graphics/SVG/1.1/DTD/svg11.dtd">
<svg version="1.1" id="Слой_1" xmlns="http://www.w3.org/2000/svg" xmlns:xlink="http://www.w3.org/1999/xlink" x="0px" y="0px"
	 viewBox="0 0 259 47.4" enable-background="new 0 0 259 47.4" xml:space="preserve">
<path fill-rule="evenodd" clip-rule="evenodd" fill="#FFE600" d="M34.5,47.4l9.9-29.8v29.8h14.8V0h-20l-9.6,23.7L20,0H0v47.4h14.8
	V17.7l10,29.8 M193.8,29c4.6-0.4,9.2-3.5,9.2-8.7V9.6v-1c-0.5-5.3-4.5-8.2-9.3-8.6h-38.1l0,47.4h14.8V29h5.9l9.6,18.4h17L191.6,29
	H193.8z M189.7,16.7c0,1-0.3,1.9-2.1,1.9h-17.2V9.3h17.2c2.1,0,2.1,1.4,2.1,2.2V16.7z M103.7,9.4V0H65.2v47.4l39,0l0-9.3H80.1
	l0-10.2h23.7v-9.3H80.1V9.4H103.7z M122.3,9.4h-14.1V0h43v9.3h-14.1v38.1h-14.8V9.4z M249.7,0h-31.5c-4.7,0.4-8.7,2.8-9.3,8.2v30.7
	c0.5,5.4,4.5,8.2,9.3,8.6h31.5c4.7-0.4,8.7-3.2,9.3-8.6V8.2C258.5,2.8,254.5,0.4,249.7,0z M244.2,36c-0.1,0.5-0.3,1.9-2.1,2.1H226
	c-1.8-0.2-2.2-1.6-2.2-2.1V11.2c0.1-0.5,0.3-1.7,2.1-1.9h16.1c1.8,0.2,2,1.3,2.1,1.9V36z"/>
</svg>
