<?xml version="1.0" encoding="utf-8"?>
<!-- Generator: Adobe Illustrator 18.0.0, SVG Export Plug-In . SVG Version: 6.00 Build 0)  -->
<!DOCTYPE svg PUBLIC "-//W3C//DTD SVG 1.1//EN" "http://www.w3.org/Graphics/SVG/1.1/DTD/svg11.dtd">
<svg version="1.1" id="Слой_1" xmlns="http://www.w3.org/2000/svg" xmlns:xlink="http://www.w3.org/1999/xlink" x="0px" y="0px"
	 viewBox="0 0 512.1 511.9" enable-background="new 0 0 512.1 511.9" xml:space="preserve">
<path fill-rule="evenodd" clip-rule="evenodd" fill="#FFFFFF" d="M384.1,217c0,29.4-2.5,50.7-15,76c-4,8.1-8.9,16.9-14.2,23.8
	c-16.7,22-36,40.6-61.9,52.1C189.6,415,73.7,348.9,65,236.6C57.9,145.2,131.4,56.8,240.1,65c59.1,4.5,113.7,47.7,133.9,102.1
	C378.8,180.2,384.1,199.5,384.1,217L384.1,217z M218.3,0C103.1,3.7,0.2,98.1,0.2,217c0,39.7,5.2,71.5,21.3,103.7
	c50.3,100.6,163.4,153.7,271.8,117.4c19.1-6.4,23.9-9.5,39.5-17.5c3.8-1.9,9-5.8,12.3-6.7c5,3.4,69.5,69,79.7,79.2
	c14.7,14.7,22.1,18.7,43.2,18.7c21.4,0,44-22.6,44-44c0-20.4-3.4-27.9-18.2-42.7c-10.3-10.3-76.4-75.2-79.7-80.2
	c0.9-3.3,10.6-18.5,13.3-24.7c14.8-34.8,21.7-56.4,21.7-99.3c0-117.8-98.8-217.2-215.7-221H218.3z"/>
</svg>
