<?xml version="1.0" encoding="utf-8"?>
<!-- Generator: Adobe Illustrator 18.0.0, SVG Export Plug-In . SVG Version: 6.00 Build 0)  -->
<!DOCTYPE svg PUBLIC "-//W3C//DTD SVG 1.1//EN" "http://www.w3.org/Graphics/SVG/1.1/DTD/svg11.dtd">
<svg version="1.1" id="Слой_1" xmlns="http://www.w3.org/2000/svg" xmlns:xlink="http://www.w3.org/1999/xlink" x="0px" y="0px"
	 viewBox="0 0 511 511" enable-background="new 0 0 511 511" xml:space="preserve">
<path fill="#FFFFFF" d="M156.3,153.4c1.7,1.7,3.8,2.5,6,2.5c2.2,0,4.4-0.8,6-2.5c3.3-3.3,3.3-8.7,0-12c-8.6-8.7-8.6-22.7,0-31.4
	c7.4-7.4,11.5-17.3,11.5-27.7s-4.1-20.3-11.5-27.7c-3.3-3.3-8.7-3.3-12,0c-3.3,3.3-3.3,8.7,0,12c4.2,4.2,6.5,9.8,6.5,15.7
	c0,5.9-2.3,11.5-6.5,15.7C141,113.3,141,138.1,156.3,153.4z"/>
<path fill="#FFFFFF" d="M343.7,153.4c1.7,1.7,3.8,2.5,6,2.5c2.2,0,4.4-0.8,6-2.5c3.3-3.3,3.3-8.7,0-12c-8.6-8.7-8.6-22.7,0-31.4
	c7.4-7.4,11.5-17.3,11.5-27.7s-4.1-20.3-11.5-27.7c-3.3-3.3-8.7-3.3-12,0c-3.3,3.3-3.3,8.7,0,12c4.2,4.2,6.5,9.8,6.5,15.7
	c0,5.9-2.3,11.5-6.5,15.7C328.4,113.3,328.4,138.1,343.7,153.4z"/>
<path fill="#FFFFFF" d="M250,102.3c1.7,1.7,3.8,2.5,6,2.5c2.2,0,4.4-0.8,6-2.5c3.3-3.3,3.3-8.7,0-12c-8.6-8.7-8.6-22.7,0-31.4
	c7.4-7.4,11.5-17.3,11.5-27.7c0-10.5-4.1-20.3-11.5-27.7c-3.3-3.3-8.7-3.3-12,0c-3.3,3.3-3.3,8.7,0,12c4.2,4.2,6.5,9.8,6.5,15.7
	s-2.3,11.5-6.5,15.7C234.7,62.2,234.7,87,250,102.3z"/>
<path fill="#FFFFFF" d="M473.7,348.6c-15.4-90.6-86.1-162.6-176-180.1c0.1-1.4,0.4-2.7,0.4-4.1c0-23.5-19.1-42.6-42.6-42.6
	s-42.6,19.1-42.6,42.6c0,1.4,0.2,2.7,0.4,4.1C123.3,186,52.7,258,37.3,348.6C19.5,358.7,0,373.5,0,390.1
	c0,43.3,132.1,72.4,255.5,72.4c123.4,0,255.5-29.1,255.5-72.4C511,373.5,491.5,358.7,473.7,348.6z M230,165.9c0-0.5-0.1-1-0.1-1.5
	c0-14.1,11.5-25.6,25.6-25.6c14.1,0,25.6,11.5,25.6,25.6c0,0.5,0,1-0.1,1.5c-0.4,0-0.8-0.1-1.2-0.1c-2.9-0.3-5.9-0.6-8.8-0.8
	c-1.1-0.1-2.2-0.2-3.3-0.2c-4-0.2-8.1-0.4-12.2-0.4c-4.1,0-8.2,0.1-12.2,0.4c-1.1,0.1-2.2,0.2-3.3,0.2c-3,0.2-5.9,0.4-8.8,0.8
	C230.8,165.8,230.4,165.9,230,165.9z M255.5,445.5C109.9,445.5,17,409.1,17,390.1c0-3.3,4-10.4,17.6-19.8c0,0.5,0,1-0.1,1.4
	c-0.3,4.7-0.5,9.4-0.5,14.1v6.7c0,0,26.2,33.9,221.4,33.9c175.5,0,221.4-33.9,221.4-33.9v-6.7c0-4.8-0.2-9.4-0.5-14.1
	c0-0.5,0-1-0.1-1.4c13.5,9.4,17.6,16.6,17.6,19.8C494,409.1,401.1,445.5,255.5,445.5z"/>
</svg>
